<svg width="366" height="348" viewBox="0 0 366 348" fill="none" xmlns="http://www.w3.org/2000/svg">
<path d="M18.2753 127.459C17.6274 139.959 12.8758 161.834 10.5 175.583V219.333C10.5 238.083 25.4026 268.083 30.5862 274.333C35.7697 280.583 51.3203 288.708 65.575 307.458C79.8297 326.207 110.283 332.457 122.594 336.832C134.905 341.207 169.894 356.832 243.111 341.207C333.138 321.995 361.036 219.333 364.924 186.208C368.811 153.084 351.965 133.709 346.134 102.459C340.302 71.2092 313.089 59.3342 304.017 46.8343C294.946 34.3344 228.856 11.8346 187.388 7.45964C145.92 3.08467 94.7324 31.2095 85.6612 38.0844C76.59 44.9594 51.9682 61.2093 36.4176 71.8342C20.8671 82.4591 18.9232 114.959 18.2753 127.459Z" fill="#F48BA2"/>
<path d="M8.29472 119.553C7.67242 131.797 3.0982 153.223 0.811523 166.69L0.818223 209.542C0.821094 227.907 15.1826 257.291 20.1773 263.412C25.1719 269.534 40.1543 277.492 53.8899 295.857C67.6255 314.222 96.9645 320.344 108.825 324.629C120.686 328.914 154.396 344.218 224.93 328.914C311.657 310.096 338.518 209.542 342.258 177.097C345.998 144.652 329.766 125.675 324.143 95.0668C318.52 64.4585 292.302 52.8273 283.561 40.584C274.82 28.3407 211.146 6.30275 171.196 2.01758C131.246 -2.26758 81.9372 25.2799 73.1993 32.0137C64.4613 38.7475 40.7437 54.6639 25.7642 65.0707C10.7847 75.4775 8.91702 107.31 8.29472 119.553Z" stroke="#080807" stroke-width="1.60356"/>
</svg>
