<svg width="173" height="172" viewBox="0 0 173 172" fill="none" xmlns="http://www.w3.org/2000/svg">
<g clip-path="url(#clip0_832_37781)">
<path fill-rule="evenodd" clip-rule="evenodd" d="M159.912 42.8038C160.1 43.125 160.175 43.499 160.118 43.8338C156.828 63.1606 147.503 75.1587 141.44 79.9275C141.39 79.9667 141.336 80 141.279 80.0267C133.928 83.4799 129.668 84.8733 126.064 85.1571C124.342 85.2927 122.773 85.171 121.122 84.9208C122.162 85.6985 123.174 86.5509 124.076 87.4576C125.396 88.7842 126.578 90.3236 127.213 92.0086C127.877 93.7692 127.901 95.5828 127.039 97.2609C125.737 99.7957 125.222 102.935 125.128 105.884C125.033 108.83 125.361 111.496 125.679 113.005C125.811 113.636 125.533 114.2 125.025 114.327C121.517 115.206 118.322 114.685 115.475 113.189C112.645 111.702 110.242 109.295 108.253 106.539C104.979 102.004 102.728 96.3881 101.44 91.8547C90.3936 106.963 76.735 105.108 70.8442 101.877C70.3184 101.589 69.9864 100.931 70.064 100.333C71.0942 92.3959 75.6987 86.775 80.881 82.9828C84.2328 80.53 87.8777 78.8032 91.0824 77.6892C91.0016 77.6522 90.92 77.6143 90.8376 77.5754C87.9346 76.2084 83.948 73.6956 78.7534 69.3509C73.2687 64.7636 71.2879 59.4133 71.1373 54.6095C70.9899 49.9053 72.5927 45.8172 74.1066 43.47C74.3119 43.1517 74.6669 43.0101 75.0467 43.0951C83.7872 45.0505 95.2976 54.0793 103.045 67.2097C103.621 63.8821 104.635 59.6496 106.183 55.4223C108.236 49.8177 111.266 44.1114 115.554 40.5829C117.786 38.7452 120.992 37.766 124.61 37.3361C128.244 36.9042 132.388 37.0165 136.581 37.4451C144.966 38.3023 153.665 40.4372 159.129 42.1471C159.439 42.2442 159.723 42.4827 159.912 42.8038ZM96.1394 78.9951C96.3456 78.9734 96.534 78.9335 96.7023 78.8741C97.225 78.6897 97.4542 78.0329 97.2253 77.3751C96.9964 76.7174 96.3886 76.286 95.8381 76.3907C95.7176 76.4136 95.5951 76.4378 95.4707 76.4633C95.2589 76.4759 94.9208 76.4591 94.4269 76.3561C93.6797 76.2002 92.6542 75.8632 91.3281 75.2387C88.6764 73.9899 84.8845 71.6212 79.8188 67.3843C75.0432 63.39 73.4698 58.9448 73.3459 54.9905C73.27 52.5692 73.7398 50.2982 74.417 48.4175C75.9239 55.0034 80.7459 60.7264 86.189 65.2444C92.8426 70.7671 100.794 74.8142 106.095 76.8627C106.56 77.0426 107.02 76.8782 107.239 76.4532C111.431 68.3447 120.917 61.3189 131.26 55.8248C140.646 50.8388 150.586 47.1903 157.528 45.1627C154.04 62.5112 145.55 73.3187 140.052 77.6799C132.778 81.0919 128.77 82.3586 125.513 82.6151C122.96 82.8162 120.859 82.4076 117.871 81.8264C117.019 81.6608 116.096 81.4811 115.069 81.2976C114.516 81.1988 114.061 81.5806 114.003 82.1912C113.946 82.8019 114.303 83.4534 114.84 83.7164C117.184 84.8636 120.479 86.897 122.81 89.2398C123.977 90.4135 124.806 91.5686 125.209 92.6363C125.583 93.6285 125.624 94.6259 125.082 95.6811C123.576 98.6131 123.021 102.148 122.919 105.323C122.837 107.886 123.048 110.272 123.326 112.017C120.59 112.511 118.18 112.013 116.063 110.901C113.71 109.665 111.636 107.623 109.842 105.138C106.234 100.139 103.91 93.546 102.894 88.9866C102.782 88.4847 102.432 88.0516 102.001 87.8812C101.57 87.7109 101.138 87.8354 100.9 88.1988C90.7647 103.643 78.1399 102.618 72.4186 100.077C73.601 93.5246 77.5802 88.6583 82.2964 85.2071C87.0646 81.7178 92.4731 79.7609 96.1394 78.9951ZM154.508 43.3254C147.656 45.4649 138.627 48.9155 130.046 53.4737C119.951 58.8367 110.303 65.8203 105.666 74.1574C100.557 72.093 93.3027 68.298 87.2461 63.2708C81.2327 58.2794 76.7184 52.3534 76.1925 45.8967C84.5923 48.3627 95.7659 57.6574 102.793 71.0566C103.05 71.5456 103.517 71.8534 103.966 71.8286C104.415 71.8039 104.751 71.4519 104.808 70.9456C105.184 67.6327 106.256 62.195 108.246 56.7608C110.241 51.3136 113.117 45.981 117.045 42.7482C118.92 41.205 121.757 40.2841 125.231 39.8712C128.688 39.4603 132.685 39.5626 136.796 39.9828C143.018 40.6188 149.433 41.976 154.508 43.3254Z" fill="#080807"/>
</g>
<defs>
<clipPath id="clip0_832_37781">
<rect width="171.991" height="171.991" fill="white" transform="translate(0.438904)"/>
</clipPath>
</defs>
</svg>
