<svg width="173" height="172" viewBox="0 0 173 172" fill="none" xmlns="http://www.w3.org/2000/svg">
<path fill-rule="evenodd" clip-rule="evenodd" d="M86.0605 50.5085L86.0604 50.5086L86.0604 50.5086C84.659 54.1519 83.2155 57.9047 81.5767 61.5462C77.3297 70.9826 69.6251 93.597 62.9588 113.937C59.6316 124.089 56.5717 133.647 54.3435 140.667C53.2294 144.177 52.3234 147.052 51.6959 149.05C51.3822 150.049 51.1381 150.828 50.9725 151.358L50.7201 152.166L49.4567 151.773L48.1938 151.379L48.4471 150.568C48.613 150.037 48.8574 149.257 49.1715 148.257C49.7997 146.257 50.7065 143.379 51.8215 139.866C54.0513 132.841 57.1138 123.275 60.4444 113.113C67.0936 92.8251 74.8458 70.0545 79.1638 60.4602C80.7695 56.8925 82.1758 53.2366 83.5713 49.6088C84.0211 48.4396 84.4697 47.2733 84.9235 46.1138C86.7729 41.3889 88.7024 36.7949 91.1021 32.7881C93.5068 28.773 96.4172 25.2889 100.261 22.8256C104.119 20.3532 108.83 18.965 114.738 19.0088C127.136 19.1007 136.155 23.1393 143.582 26.5608C148.907 29.0141 151.69 35.4357 149.346 40.9255C146.694 47.1372 138.929 49.023 133.144 46.2352C127.558 43.5435 120.736 41.4726 114.893 43.0953C114.432 43.2234 113.774 43.633 112.931 44.5103C112.107 45.3672 111.204 46.5684 110.233 48.097C108.293 51.1522 106.176 55.371 103.966 60.394C99.5521 70.4307 94.8441 83.5108 90.5234 96.5146C86.205 109.511 82.2836 122.401 79.4411 132.043C78.0201 136.864 76.8692 140.872 76.0737 143.674C75.6759 145.075 75.367 146.174 75.1577 146.923C75.053 147.298 74.9732 147.585 74.9196 147.778L74.8392 148.068L73.5635 147.717C72.288 147.366 72.2882 147.365 72.2884 147.365L72.37 147.07C72.424 146.875 72.5042 146.587 72.6093 146.211C72.8196 145.459 73.1294 144.356 73.5282 142.951C74.3258 140.142 75.4792 136.126 76.9031 131.295C79.7505 121.636 83.6812 108.715 88.0123 95.6803C92.341 82.6527 97.0797 69.4798 101.544 59.3288C103.548 54.7727 105.511 50.7914 107.372 47.6942C107.363 47.6894 107.354 47.6844 107.346 47.6794L91.096 38.3939C89.7805 41.1079 88.5801 44.0313 87.3875 47.0783C86.9462 48.2058 86.5055 49.3515 86.0606 50.5081L86.0605 50.5085ZM73.5635 147.717L72.288 147.366C72.0938 148.07 72.5074 148.799 73.2118 148.993C73.9162 149.187 74.645 148.773 74.8392 148.068C74.839 148.069 74.8389 148.069 73.5635 147.717ZM48.1938 151.379C48.1936 151.379 48.1936 151.38 49.4567 151.773C50.7198 152.167 50.7199 152.167 50.7201 152.166C50.5028 152.864 49.7608 153.254 49.0632 153.036C48.3656 152.819 47.9765 152.077 48.1938 151.379ZM111.023 42.6769C110.195 43.5388 109.353 44.6307 108.502 45.9052C108.469 45.8809 108.435 45.8582 108.398 45.8374L92.0536 36.4976C92.4787 35.6915 92.9171 34.9073 93.3721 34.1476C93.6874 33.6213 94.0099 33.1079 94.3406 32.608C94.4204 32.7052 94.5188 32.7897 94.6345 32.8558L111.311 42.3855C111.214 42.4804 111.118 42.5777 111.023 42.6769ZM112.852 41.1468C113.284 40.8792 113.728 40.6726 114.185 40.5458C121.002 38.6527 128.581 41.0994 134.293 43.8515C139.027 46.1332 144.98 44.4146 146.913 39.8864C148.653 35.8107 146.597 30.863 142.475 28.9641C135.09 25.5616 126.512 21.7422 114.718 21.6548C109.261 21.6143 105.065 22.8892 101.689 25.0533C99.3096 26.578 97.2941 28.5715 95.5182 30.9359C95.5757 30.9566 95.6322 30.9825 95.687 31.0138L112.367 40.5453C112.608 40.6831 112.775 40.9013 112.852 41.1468Z" fill="#080807"/>
</svg>
