<svg width="173" height="172" viewBox="0 0 173 172" fill="none" xmlns="http://www.w3.org/2000/svg">
<g clip-path="url(#clip0_832_37787)">
<path fill-rule="evenodd" clip-rule="evenodd" d="M43.1129 55.6327C39.5501 52.8864 36.3346 49.433 34.7511 45.1359C33.186 40.8888 33.155 35.656 36.2491 29.1838C36.7271 28.1839 37.5517 27.2515 38.6297 26.3368C39.7077 25.4222 40.9602 24.5892 42.2413 23.746L42.4029 23.6397C43.6007 22.8518 44.8389 22.0373 45.8321 21.1862C46.853 20.3113 47.8196 19.2317 48.1304 17.8753C48.6816 15.47 48.1516 12.8356 47.4295 10.5728C46.8979 8.90674 46.2056 7.28805 45.6613 6.01518L45.6612 6.01483C45.4667 5.56006 45.2911 5.14944 45.1484 4.79658C44.8746 4.11921 44.1034 3.79216 43.426 4.06607C42.7485 4.33999 42.4213 5.11113 42.6952 5.7885C42.8696 6.22003 43.0673 6.68236 43.2766 7.17175L43.2772 7.17313C43.8104 8.41973 44.4186 9.84182 44.9086 11.3774C45.5907 13.5151 45.9398 15.5886 45.5511 17.2848C45.4348 17.7926 45.01 18.4063 44.1104 19.1772C43.2477 19.9165 42.135 20.6487 40.8742 21.4783L40.8742 21.4784L40.7867 21.5359C39.5237 22.3672 38.1377 23.2844 36.9179 24.3195C35.6981 25.3544 34.5654 26.5711 33.8618 28.043C30.4983 35.0788 30.4268 41.0543 32.2682 46.0511C34.0912 50.9981 37.7294 54.8241 41.4972 57.7283C44.0191 59.6722 44.5654 61.3623 44.3745 62.7914C44.1623 64.3791 42.9969 66.0983 41.1195 67.9218C39.2732 69.715 36.9444 71.4174 34.7311 73.0194L34.4372 73.232L34.437 73.2322C32.3966 74.708 30.3942 76.1563 29.2363 77.4385C24.1225 83.1017 22.3969 88.873 23.1792 94.0092C23.9575 99.1185 27.1841 103.37 31.5253 106.079C31.8387 106.275 32.3021 106.475 32.7428 106.658C32.9685 106.751 33.2177 106.852 33.4787 106.958L33.521 106.975C33.7994 107.088 34.0939 107.207 34.4018 107.335C35.6407 107.848 37.0506 108.473 38.2967 109.223C39.5686 109.988 40.5228 110.797 41.0036 111.614C41.4208 112.323 41.5195 113.081 40.9567 114.085C40.0176 115.76 38.7675 117.5 37.4039 118.979C36.0274 120.472 34.6042 121.624 33.3368 122.214C30.7809 123.405 28.0967 124.735 25.9486 126.9C23.7563 129.109 22.1968 132.105 21.6847 136.493C21.0893 141.594 21.7881 144.224 23.2965 146.393C23.8086 147.13 24.4258 147.822 25.0224 148.49L25.0225 148.491C25.2234 148.716 25.422 148.939 25.6135 149.16C26.4052 150.073 27.2218 151.108 28.0081 152.543C30.7542 157.556 30.1998 161.742 28.2323 165.255C26.2108 168.865 22.6557 171.821 19.3259 174.08C13.674 177.915 11.486 184.86 11.2839 191.973C11.1715 195.931 12.1115 198.362 13.9413 200.127C14.8088 200.965 15.8239 201.6 16.8566 202.176C17.3377 202.444 17.7849 202.68 18.2336 202.917L18.2342 202.917L18.2343 202.918C18.8328 203.234 19.4341 203.551 20.1224 203.948C20.7554 204.313 21.5645 204.096 21.9295 203.463C22.2946 202.83 22.0774 202.021 21.4444 201.656C20.7652 201.264 20.0345 200.877 19.3681 200.523L19.3674 200.523L19.3655 200.522C18.9179 200.284 18.4994 200.062 18.1452 199.865C17.1728 199.323 16.3969 198.82 15.779 198.223C14.6381 197.122 13.8307 195.506 13.929 192.047C14.1207 185.301 16.186 179.408 20.8114 176.27C24.2377 173.945 28.212 170.706 30.541 166.548C32.9242 162.292 33.5416 157.137 30.3289 151.272C29.4203 149.613 28.4751 148.421 27.6132 147.426C27.3601 147.134 27.1247 146.87 26.9042 146.623C26.346 145.997 25.883 145.477 25.4691 144.882C24.4536 143.422 23.7625 141.515 24.3129 136.799C24.7633 132.941 26.0917 130.512 27.8269 128.763C29.6061 126.97 31.8889 125.808 34.4538 124.613C36.1597 123.818 37.8557 122.392 39.3494 120.772C40.8559 119.138 42.2269 117.229 43.2647 115.379C44.3 113.533 44.1661 111.771 43.2845 110.272C42.4665 108.882 41.0557 107.794 39.6608 106.955C38.2401 106.101 36.6814 105.415 35.4146 104.89C35.0961 104.758 34.7931 104.636 34.5149 104.523L34.4769 104.507C34.2118 104.4 33.9725 104.303 33.7576 104.214C33.2725 104.013 33.0212 103.894 32.9268 103.835C29.1219 101.46 26.4377 97.8288 25.7952 93.6104C25.1567 89.4187 26.5002 84.4165 31.2002 79.2116C32.1661 78.142 33.9769 76.8313 36.1992 75.223L36.2825 75.1627C38.4697 73.5796 40.9567 71.7683 42.963 69.8197C44.938 67.9014 46.662 65.6508 46.9973 63.1415C47.3538 60.4737 46.1057 57.9395 43.1129 55.6327ZM58.4968 57.8305C60.0803 62.1275 63.2958 65.581 66.8586 68.3272C69.8514 70.6341 71.0995 73.1682 70.743 75.8361C70.4077 78.3454 68.6837 80.596 66.7087 82.5142C64.7024 84.4628 62.2154 86.2741 60.0282 87.8572L59.9449 87.9175C57.7226 89.5259 55.9118 90.8365 54.9459 91.9061C50.2459 97.1111 48.9024 102.113 49.5409 106.305C50.1834 110.523 52.8676 114.154 56.6725 116.53C56.7669 116.588 57.0182 116.707 57.5033 116.909C57.7182 116.998 57.9575 117.095 58.2226 117.202L58.2606 117.217C58.5388 117.33 58.8418 117.453 59.1603 117.585C60.4272 118.109 61.9858 118.795 63.4065 119.65C64.8014 120.489 66.2122 121.576 67.0302 122.967C67.9118 124.466 68.0457 126.227 67.0104 128.073C65.9726 129.924 64.6016 131.832 63.0951 133.467C61.6014 135.087 59.9054 136.513 58.1995 137.308C55.6346 138.502 53.3518 139.665 51.5726 141.458C49.8374 143.207 48.509 145.635 48.0587 149.494C47.5082 154.21 48.1993 156.116 49.2149 157.577C49.6287 158.172 50.0917 158.691 50.6499 159.318C50.8704 159.565 51.1058 159.829 51.3589 160.121C52.2208 161.115 53.166 162.308 54.0746 163.966C57.2873 169.831 56.6699 174.987 54.2868 179.242C51.9577 183.401 47.9834 186.64 44.5571 188.964C39.9317 192.102 37.8664 197.996 37.6747 204.742C37.5764 208.201 38.3838 209.817 39.5247 210.918C40.1426 211.514 40.9185 212.017 41.8909 212.559C42.2445 212.756 42.6622 212.978 43.109 213.215L43.1112 213.216L43.1131 213.217L43.1138 213.218L43.1145 213.218C43.7807 213.571 44.5112 213.959 45.1901 214.351C45.8231 214.715 46.0403 215.524 45.6752 216.157C45.3102 216.79 44.5011 217.008 43.8681 216.643C43.1798 216.246 42.5785 215.928 41.98 215.612L41.9799 215.612L41.979 215.612L41.9786 215.611C41.5301 215.374 41.0831 215.138 40.6023 214.87C39.5696 214.295 38.5545 213.659 37.687 212.822C35.8572 211.056 34.9172 208.626 35.0296 204.667C35.2317 197.555 37.4197 190.609 43.0716 186.775C46.4014 184.516 49.9565 181.559 51.9781 177.95C53.9455 174.437 54.4999 170.251 51.7538 165.238C50.9675 163.802 50.1509 162.767 49.3592 161.854C49.1677 161.633 48.9691 161.411 48.7682 161.185L48.7681 161.185C48.1715 160.516 47.5543 159.824 47.0422 159.088C45.5338 156.918 44.835 154.288 45.4304 149.187C45.9426 144.799 47.502 141.804 49.6943 139.595C51.8424 137.43 54.5266 136.099 57.0825 134.909C58.3499 134.319 59.7731 133.167 61.1496 131.673C62.5132 130.194 63.7633 128.454 64.7024 126.78C65.2653 125.776 65.1665 125.018 64.7493 124.309C64.2685 123.491 63.3143 122.682 62.0424 121.917C60.7963 121.168 59.3864 120.542 58.1475 120.029C57.8396 119.902 57.5451 119.783 57.2667 119.67L57.2244 119.653C56.9634 119.547 56.7142 119.446 56.4885 119.352C56.0478 119.169 55.5844 118.97 55.271 118.774C50.9298 116.064 47.7032 111.813 46.9249 106.704C46.1426 101.568 47.8682 95.7963 52.982 90.1331C54.1399 88.8509 56.1423 87.4025 58.1828 85.9267L58.1829 85.9266L58.4768 85.714C60.6901 84.112 63.0189 82.4095 64.8652 80.6164C66.7427 78.7929 67.908 77.0737 68.1202 75.486C68.3112 74.0568 67.7649 72.3668 65.2429 70.4229C61.4751 67.5187 57.8369 63.6926 56.0139 58.7457C54.1725 53.7489 54.244 47.7733 57.6075 40.7375C58.3111 39.2656 59.4438 38.049 60.6636 37.014C61.8834 35.979 63.2694 35.0617 64.5324 34.2305L64.6199 34.173L64.6199 34.1729C65.8807 33.3433 66.9934 32.6111 67.8561 31.8718C68.7557 31.1008 69.1805 30.4872 69.2968 29.9793C69.6855 28.2832 69.3364 26.2097 68.6543 24.072C68.1643 22.5364 67.5561 21.1143 67.0229 19.8677L67.0224 19.8663C66.813 19.3769 66.6153 18.9146 66.4409 18.4831C66.167 17.8057 66.4942 17.0346 67.1717 16.7606C67.8492 16.4867 68.6203 16.8138 68.8942 17.4911C69.0368 17.844 69.2124 18.2546 69.4069 18.7094L69.407 18.7097C69.9514 19.9826 70.6436 21.6013 71.1752 23.2673C71.8973 25.5301 72.4273 28.1646 71.8761 30.5699C71.5653 31.9262 70.5987 33.0059 69.5778 33.8808C68.5846 34.7319 67.3464 35.5464 66.1486 36.3343L65.987 36.4406C64.7059 37.2837 63.4534 38.1167 62.3754 39.0314C61.2974 39.9461 60.4728 40.8785 59.9948 41.8784C56.9007 48.3506 56.9317 53.5834 58.4968 57.8305ZM80.2309 61.3532C81.8144 65.6502 85.0298 69.1037 88.5927 71.8499C91.5855 74.1567 92.8335 76.6909 92.477 79.3587C92.1417 81.868 90.4178 84.1186 88.4427 86.0369C86.4364 87.9855 83.9495 89.7968 81.7622 91.3799L81.6789 91.4402C79.4567 93.0485 77.6458 94.3592 76.68 95.4288C71.9799 100.634 70.6364 105.636 71.2749 109.828C71.9175 114.046 74.6017 117.677 78.4066 120.052C78.501 120.111 78.7523 120.23 79.2374 120.431C79.4523 120.52 79.6916 120.617 79.9567 120.725L79.9946 120.74C80.2728 120.853 80.5759 120.976 80.8944 121.107C82.1612 121.632 83.7198 122.318 85.1406 123.172C86.5355 124.011 87.9463 125.099 88.7643 126.489C89.6459 127.988 89.7798 129.75 88.7444 131.596C87.7066 133.447 86.3357 135.355 84.8291 136.989C83.3355 138.609 81.6395 140.036 79.9335 140.83C77.3687 142.025 75.0859 143.187 73.3066 144.981C71.5715 146.729 70.2431 149.158 69.7927 153.016C69.2422 157.732 69.9334 159.639 70.9489 161.1C71.3627 161.695 71.8258 162.214 72.3839 162.84C72.6045 163.088 72.8399 163.352 73.0929 163.644C73.9549 164.638 74.9001 165.831 75.8087 167.489C79.0214 173.354 78.4039 178.51 76.0208 182.765C73.6918 186.924 69.7175 190.162 66.2911 192.487C61.6658 195.625 59.6004 201.519 59.4088 208.265C59.3105 211.723 60.1179 213.34 61.2588 214.441C61.8766 215.037 62.6526 215.54 63.625 216.082C63.9786 216.279 64.3963 216.501 64.8431 216.738L64.8452 216.739L64.8472 216.74C65.5137 217.094 66.2448 217.481 66.9242 217.873C67.5571 218.238 67.7743 219.047 67.4093 219.68C67.0442 220.313 66.2352 220.53 65.6022 220.165C64.9139 219.769 64.3126 219.451 63.7141 219.135L63.7139 219.135L63.7131 219.134C63.2644 218.897 62.8173 218.661 62.3363 218.393C61.3037 217.817 60.2885 217.182 59.421 216.345C57.5913 214.579 56.6512 212.149 56.7637 208.19C56.9658 201.077 59.1538 194.132 64.8056 190.297C68.1355 188.038 71.6905 185.082 73.7121 181.472C75.6796 177.959 76.234 173.773 73.4879 168.76C72.7016 167.325 71.885 166.29 71.0932 165.377C70.9018 165.156 70.7032 164.933 70.5023 164.708C69.9056 164.039 69.2884 163.347 68.7763 162.61C67.2679 160.441 66.569 157.811 67.1644 152.71C67.6766 148.322 69.2361 145.327 71.4283 143.117C73.5765 140.952 76.2607 139.622 78.8166 138.432C80.0839 137.841 81.5071 136.689 82.8837 135.196C84.2472 133.717 85.4973 131.977 86.4365 130.302C86.9993 129.298 86.9006 128.54 86.4834 127.831C86.0026 127.014 85.0483 126.205 83.7765 125.44C82.5304 124.691 81.1205 124.065 79.8816 123.552C79.5736 123.425 79.2792 123.305 79.0008 123.192L78.9584 123.175C78.6974 123.07 78.4483 122.969 78.2226 122.875C77.7818 122.692 77.3185 122.492 77.005 122.297C72.6638 119.587 69.4372 115.336 68.659 110.226C67.8766 105.09 69.6023 99.3189 74.7161 93.6557C75.8739 92.3736 77.8762 90.9253 79.9165 89.4496L79.9168 89.4494L79.917 89.4492L80.2109 89.2366C82.4242 87.6347 84.753 85.9322 86.5992 84.139C88.4767 82.3155 89.6421 80.5963 89.8542 79.0087C90.0452 77.5795 89.4989 75.8894 86.977 73.9455C83.2092 71.0413 79.571 67.2153 77.748 62.2683C75.9065 57.2715 75.978 51.296 79.3415 44.2602C80.0452 42.7883 81.1778 41.5716 82.3976 40.5367C83.6175 39.5016 85.0034 38.5844 86.2665 37.7531L86.3539 37.6956C87.6147 36.866 88.7274 36.1337 89.5901 35.3944C90.4898 34.6235 90.9145 34.0098 91.0309 33.502C91.4196 31.8058 91.0705 29.7323 90.3884 27.5946C89.8983 26.059 89.2901 24.6369 88.757 23.3903L88.7562 23.3885L88.7561 23.3883C88.5469 22.8992 88.3493 22.437 88.1749 22.0057C87.9011 21.3283 88.2283 20.5572 88.9058 20.2833C89.5832 20.0094 90.3544 20.3364 90.6282 21.0138C90.7707 21.3662 90.946 21.7762 91.1402 22.2303L91.1406 22.2314L91.1411 22.2324C91.6854 23.5053 92.3776 25.1239 92.9093 26.79C93.6313 29.0528 94.1613 31.6872 93.6102 34.0925C93.2994 35.4489 92.3328 36.5285 91.3119 37.4034C90.3187 38.2546 89.0804 39.069 87.8826 39.8569L87.721 39.9632C86.4399 40.8064 85.1875 41.6394 84.1095 42.554C83.0315 43.4687 82.2069 44.4011 81.7289 45.401C78.6348 51.8732 78.6657 57.1061 80.2309 61.3532Z" fill="#080807"/>
</g>
<defs>
<clipPath id="clip0_832_37787">
<rect width="171.991" height="171.991" fill="white" transform="translate(0.730225)"/>
</clipPath>
</defs>
</svg>
