<svg width="277" height="265" viewBox="0 0 277 265" fill="none" xmlns="http://www.w3.org/2000/svg">
<path d="M14.8698 98.7856C14.3807 108.206 10.7936 124.693 9 135.055V168.028C9 182.159 20.2505 204.769 24.1636 209.479C28.0768 214.19 39.8165 220.313 50.5777 234.444C61.3391 248.576 84.3291 253.286 93.6229 256.583C102.917 259.881 129.331 271.656 184.605 259.881C252.569 245.401 273.63 168.028 276.565 143.063C279.5 118.098 266.782 103.496 262.38 79.9441C257.977 56.3922 237.433 47.4424 230.585 38.0217C223.737 28.6009 173.844 11.6436 142.538 8.34632C111.232 5.04906 72.5895 26.2458 65.7414 31.4272C58.8933 36.6086 40.3056 48.8556 28.566 56.8632C16.8264 64.8709 15.359 89.3649 14.8698 98.7856Z" fill="#E29723"/>
<path d="M7.43303 94.8893C7.14728 104.134 4.01857 120.365 2.49585 130.559L3.14355 162.883C3.42114 176.737 14.6938 198.687 18.5528 203.23C22.4117 207.773 33.8313 213.551 44.4666 227.199C55.1019 240.846 77.3223 245.024 86.3324 248.079C95.3424 251.134 120.997 262.173 173.967 249.57C239.097 234.075 257.849 157.82 260.184 133.289C262.518 108.758 249.99 94.6866 245.29 71.6818C240.59 48.6769 220.641 40.2962 213.864 31.1916C207.088 22.0871 158.733 6.41771 128.537 3.78429C98.3403 1.15087 61.5631 22.6705 55.0736 27.8811C48.5841 33.0917 30.9341 45.4537 19.7921 53.5287C8.65004 61.6036 7.71878 85.6443 7.43303 94.8893Z" stroke="#080807" stroke-width="1.60356"/>
</svg>
