<svg width="366" height="348" viewBox="0 0 366 348" fill="none" xmlns="http://www.w3.org/2000/svg">
<path d="M18.7753 127.459C18.1274 139.959 13.3758 161.834 11 175.583V219.333C11 238.083 25.9026 268.083 31.0862 274.333C36.2697 280.583 51.8203 288.708 66.075 307.458C80.3297 326.207 110.783 332.457 123.094 336.832C135.405 341.207 170.394 356.832 243.611 341.207C333.638 321.995 361.536 219.333 365.424 186.208C369.311 153.084 352.465 133.709 346.634 102.459C340.802 71.2092 313.589 59.3342 304.517 46.8343C295.446 34.3344 229.356 11.8346 187.888 7.45964C146.42 3.08467 95.2324 31.2095 86.1612 38.0844C77.09 44.9594 52.4682 61.2093 36.9176 71.8342C21.3671 82.4591 19.4232 114.959 18.7753 127.459Z" fill="#E29723"/>
<path d="M8.79466 119.553C8.17236 131.797 3.59814 153.223 1.31146 166.69L1.31816 209.542C1.32103 227.907 15.6825 257.291 20.6772 263.412C25.6719 269.534 40.6543 277.492 54.3898 295.857C68.1254 314.222 97.4644 320.344 109.325 324.629C121.186 328.914 154.896 344.218 225.43 328.914C312.156 310.096 339.018 209.542 342.758 177.097C346.498 144.652 330.266 125.675 324.643 95.0668C319.02 64.4585 292.801 52.8273 284.061 40.584C275.32 28.3407 211.646 6.30275 171.696 2.01758C131.746 -2.26758 82.4371 25.2799 73.6992 32.0137C64.9613 38.7475 41.2436 54.6639 26.2641 65.0707C11.2846 75.4775 9.41696 107.31 8.79466 119.553Z" stroke="#080807" stroke-width="1.60356"/>
</svg>
