<svg width="173" height="172" viewBox="0 0 173 172" fill="none" xmlns="http://www.w3.org/2000/svg">
<path fill-rule="evenodd" clip-rule="evenodd" d="M53.2004 45.4284C61.9074 53.0777 71.7782 61.0672 82.3216 69.0014C83.2011 69.6632 84.0851 70.3245 84.9734 70.9851L86.1326 69.7091L87.2483 68.4809C97.4018 57.3042 107.654 46.0345 112.965 40.6681C110.614 40.3744 107.322 40.2112 103.404 40.1822C98.0207 40.1425 91.5842 40.3556 85.0598 40.7831C78.5353 41.2106 71.9403 41.8513 66.2389 42.6638C60.6911 43.4545 56.0798 44.3957 53.2004 45.4284ZM51.2641 43.7159C39.8107 33.5164 30.5218 23.9837 24.5863 16.0751C46.0809 14.7167 68.4168 20.5238 85.6511 26.8366C94.5687 30.103 102.089 33.4932 107.378 36.0658C108.683 36.7005 109.852 37.2852 110.872 37.8058C108.719 37.6425 106.188 37.5567 103.424 37.5363C97.9633 37.496 91.4611 37.712 84.8868 38.1427C78.3125 38.5735 71.6486 39.2202 65.8656 40.0443C60.1126 40.8641 55.1346 41.8724 51.9893 43.0544C51.6586 43.1787 51.4069 43.4212 51.2641 43.7159ZM117.424 92.3598C118.822 76.9462 120.176 61.2668 117.86 42.8521C118.764 43.8721 119.89 45.1666 121.193 46.7125C124.768 50.9506 129.676 57.0755 135.006 64.6132C145.217 79.0551 156.934 98.628 163.797 120.017C148.854 112.744 132.801 103.456 116.991 93.2239C117.231 93.0086 117.393 92.7058 117.424 92.3598ZM115.116 42.2554C117.54 60.6329 116.228 76.2397 114.817 91.8099C105.376 85.6396 96.0441 79.1491 87.1109 72.5674L87.8769 71.7241L89.2068 70.2601C99.649 58.7657 110.025 47.3647 115.116 42.2554ZM83.1855 72.9529C72.4411 84.7763 62.5378 95.6272 59.3591 98.517C58.8185 99.0085 58.7786 99.8452 59.2701 100.386C59.7616 100.927 60.5984 100.966 61.139 100.475C64.4436 97.4707 74.549 86.3924 85.3223 74.5361C110.941 93.4292 139.887 111.618 165.389 123.719C165.861 123.943 166.421 123.868 166.818 123.528C167.214 123.188 167.374 122.647 167.225 122.146C160.407 99.2491 147.918 78.2919 137.166 63.0856C131.786 55.4758 126.83 49.2912 123.216 45.0066C121.409 42.8641 119.938 41.1959 118.916 40.0615C118.596 39.7064 118.32 39.4036 118.092 39.1548L127.047 27.6599C127.496 27.0835 127.392 26.2522 126.816 25.8032C126.24 25.3541 125.408 25.4574 124.959 26.0338L116.009 37.523C115.676 37.3407 115.263 37.1169 114.774 36.8562C113.327 36.0842 111.212 34.988 108.536 33.6863C103.184 31.0834 95.5799 27.6555 86.5612 24.352C68.5521 17.7554 44.7782 11.6076 22.0037 13.6171C21.5323 13.6587 21.1191 13.9488 20.9199 14.378C20.7207 14.8072 20.7659 15.3101 21.0384 15.697C31.4178 30.4294 54.0516 51.0391 80.7306 71.1156C81.5451 71.7285 82.3634 72.341 83.1855 72.9529Z" fill="#080807"/>
</svg>
