<svg width="366" height="348" viewBox="0 0 366 348" fill="none" xmlns="http://www.w3.org/2000/svg">
<path d="M18.4896 126.891C17.8416 139.391 13.0901 161.266 10.7143 175.016V218.766C10.7143 237.516 25.6169 267.515 30.8005 273.765C35.984 280.015 51.5346 288.14 65.7893 306.89C80.044 325.64 110.497 331.89 122.808 336.265C135.119 340.64 170.108 356.265 243.325 340.64C333.352 321.428 361.25 218.766 365.138 185.641C369.026 152.516 352.179 133.141 346.348 101.892C340.516 70.6418 313.303 58.7669 304.232 46.2669C295.16 33.767 229.07 11.2672 187.602 6.89225C146.134 2.51728 94.9466 30.6421 85.8755 37.517C76.8043 44.392 52.1825 60.6419 36.6319 71.2668C21.0814 81.8918 19.1375 114.392 18.4896 126.891Z" fill="#F0C45E"/>
<path d="M8.50901 118.986C7.88671 131.229 3.3125 152.655 1.02582 166.123L1.03252 208.974C1.03539 227.339 15.3969 256.723 20.3916 262.845C25.3862 268.967 40.3686 276.925 54.1042 295.29C67.8398 313.655 97.1788 319.777 109.039 324.062C120.9 328.347 154.61 343.651 225.144 328.347C311.871 309.529 338.732 208.974 342.472 176.53C346.213 144.085 329.98 125.108 324.357 94.4994C318.735 63.8911 292.516 52.2599 283.775 40.0166C275.034 27.7733 211.361 5.73536 171.41 1.4502C131.46 -2.83496 82.1515 24.7125 73.4136 31.4463C64.6756 38.1802 40.958 54.0965 25.9785 64.5033C10.999 74.9101 9.13131 106.743 8.50901 118.986Z" stroke="#080807" stroke-width="1.60356"/>
</svg>
