<svg width="173" height="172" viewBox="0 0 173 172" fill="none" xmlns="http://www.w3.org/2000/svg">
<path fill-rule="evenodd" clip-rule="evenodd" d="M26.5282 43.2422C37.9682 34.1076 51.7847 29.0616 65.1587 27.1313L73.8542 95.5722C59.6623 82.3367 43.6599 68.4488 26.8267 54.1175C23.3167 51.1292 23.139 45.9484 26.5282 43.2422ZM76.4065 94.6668L67.7826 26.7903C82.3865 25.0882 95.8043 26.6885 107.287 31.172C100.719 43.0185 94.5715 55.8901 89.1285 67.5941C87.873 70.294 86.656 72.9293 85.4804 75.4749L85.4799 75.4761C82.0864 82.8244 79.0386 89.4242 76.4065 94.6668ZM91.5278 68.7099C97.0082 56.9253 103.175 44.0198 109.749 32.1886C119.504 36.4225 126.535 41.8828 131.928 49.1152C137.332 56.3635 141.145 65.4633 144.348 77.0673C120.128 82.5569 103.941 86.5846 78.6886 96.0182C81.3694 90.6892 84.474 83.9661 87.906 76.5341L87.909 76.5276C89.0785 73.9949 90.2861 71.38 91.5278 68.7099ZM80.009 98.3497C104.853 89.0896 120.864 85.104 144.859 79.6645C145.442 84.2704 146.083 89.8997 146.398 95.4889C146.716 101.129 146.697 106.641 145.987 110.992C136.689 109.188 128.656 107.988 121.093 106.857L121.093 106.857C117.757 106.359 114.513 105.874 111.293 105.358C101.426 103.774 91.6953 101.88 80.009 98.3497ZM120.766 109.484C128.302 110.61 136.239 111.796 145.467 113.586C143.309 123.2 139.476 132.352 134.235 140.453C132.074 143.793 127.524 144.511 124.229 142.083C110.223 131.766 99.7975 121.25 89.6559 111.021L89.6557 111.021C86.3002 107.636 82.9757 104.283 79.563 100.979C91.2563 104.492 101.022 106.389 110.873 107.97C114.143 108.495 117.414 108.983 120.764 109.484L120.766 109.484L120.766 109.484ZM66.1329 24.3273C51.9743 26.1601 37.1423 31.3811 24.8772 41.1744C19.9791 45.0854 20.5465 52.2459 25.1114 56.1323C43.007 71.368 59.9282 86.073 74.7224 100.013C79.0952 104.133 83.319 108.393 87.624 112.734L87.6244 112.735C97.8251 123.022 108.482 133.77 122.66 144.214C127.089 147.476 133.406 146.605 136.456 141.89C142.115 133.144 146.178 123.223 148.341 112.816C149.353 107.943 149.393 101.602 149.04 95.3399C148.685 89.0532 147.927 82.7391 147.299 77.8829C147.291 77.8247 147.28 77.7672 147.265 77.7105C143.947 65.3214 139.944 55.4396 134.049 47.5336C128.136 39.6027 120.378 33.7375 109.682 29.2848C97.0755 24.0367 82.2292 22.2437 66.1329 24.3273ZM75.0333 32.3209C74.481 32.3209 74.0333 32.7686 74.0333 33.3209C74.0333 33.8732 74.481 34.3209 75.0333 34.3209H75.0556H75.0779H75.1002H75.1225H75.1447H75.167H75.1893H75.2116H75.2339H75.2562H75.2785H75.3007H75.323H75.3453H75.3676H75.3899H75.4122H75.4345H75.4568H75.479H75.5013H75.5236H75.5459H75.5682H75.5905H75.6128H75.6351H75.6573H75.6796H75.7019H75.7242H75.7465H75.7688H75.7911H75.8133H75.8356H75.8579H75.8802H75.9025H75.9248H75.9471H75.9694H75.9916H76.0139H76.0362H76.0585H76.0808H76.1031H76.1254H76.1477H76.1699H76.1922H76.2145H76.2368H76.2591H76.2814H76.3037H76.326H76.3482H76.3705H76.3928H76.4151H76.4374H76.4597H76.482H76.5042H76.5265H76.5488H76.5711H76.5934H76.6157H76.638H76.6603H76.6825H76.7048H76.7271H76.7494H76.7717H76.794H76.8163H76.8386H76.8608H76.8831H76.9054H76.9277H76.95H76.9723H76.9946H77.0168H77.0391H77.0614H77.0837H77.106H77.1283H77.1506H77.1729H77.1951H77.2174H77.2397H77.262H77.2843H77.3066H77.3289H77.3512H77.3734H77.3957H77.418H77.4403H77.4626H77.4849H77.5072H77.5294H77.5517H77.574H77.5963H77.6186H77.6409H77.6632H77.6855H77.7077H77.73H77.7523H77.7746H77.7969H77.8192H77.8415H77.8638H77.886H77.9083H77.9306H77.9529H77.9752H77.9975H78.0198H78.0421H78.0643H78.0866H78.1089H78.1312H78.1535H78.1758H78.1981H78.2203H78.2426H78.2649H78.2872H78.3095H78.3318H78.3541H78.3764H78.3986H78.4209H78.4432H78.4655H78.4878H78.5101H78.5324H78.5547H78.5769H78.5992H78.6215H78.6438H78.6661H78.6884H78.7107H78.733H78.7552H78.7775H78.7998H78.8221H78.8444H78.8667H78.889H78.9112H78.9335H78.9558H78.9781H79.0004H79.0227H79.045H79.0673H79.0895H79.1118H79.1341H79.1564H79.1787H79.201H79.2233H79.2456H79.2678H79.2901H79.3124H79.3347H79.357H79.3793H79.4016H79.4238H79.4461H79.4684H79.4907H79.513H79.5353H79.5576H79.5799H79.6021H79.6244H79.6467H79.669H79.6913H79.7136H79.7359H79.7582H79.7804H79.8027H79.825H79.8473H79.8696H79.8919H79.9142H79.9365H79.9587H79.981H80.0033H80.0256H80.0479H80.0702H80.0925H80.1147H80.137H80.1593H80.1816H80.2039H80.2262H80.2485H80.2708H80.293H80.3153H80.3376H80.3599H80.3822H80.4045H80.4268H80.4491H80.4713H80.4936H80.5159H80.5382H80.5605H80.5828H80.6051H80.6273H80.6496H80.6719H80.6942H80.7165H80.7388H80.7611H80.7834H80.8056H80.8279H80.8502H80.8725H80.8948H80.9171H80.9394H80.9617H80.9839H81.0062H81.0285H81.0508H81.0731H81.0954H81.1177H81.14H81.1622H81.1845H81.2068H81.2291H81.2514H81.2737H81.296H81.3182H81.3405H81.3628H81.3851H81.4074H81.4297H81.452H81.4743H81.4965H81.5188H81.5411H81.5634H81.5857H81.608H81.6303H81.6525H81.6748H81.6971H81.7194H81.7417H81.764H81.7863H81.8086H81.8308H81.8531H81.8754H81.8977H81.92H81.9423H81.9646H81.9869H82.0091H82.0314H82.0537H82.076H82.0983H82.1206H82.1429H82.1652H82.1874H82.2097H82.232H82.2543H82.2766H82.2989H82.3212H82.3435H82.3657H82.388H82.4103H82.4326H82.4549H82.4772H82.4995H82.5217H82.544H82.5663H82.5886H82.6109H82.6332H82.6555H82.6778H82.7H82.7223H82.7446H82.7669H82.7892H82.8115H82.8338H82.856H82.8783H82.9006H82.9229H82.9452H82.9675H82.9898H83.0121H83.0343H83.0566H83.0789H83.1012H83.1235H83.1458H83.1681H83.1904H83.2126H83.2349H83.2572H83.2795H83.3018H83.3241H83.3464H83.3687H83.3909H83.4132H83.4355H83.4578H83.4801H83.5024H83.5247H83.547H83.5692H83.5915H83.6138H83.6361H83.6584H83.6807H83.703H83.7253H83.7475H83.7698H83.7921H83.8144H83.8367H83.859H83.8813H83.9035H83.9258H83.9481H83.9704H83.9927H84.015H84.0373H84.0596H84.0818H84.1041H84.1264H84.1487H84.171H84.1933H84.2156H84.2378H84.2601H84.2824H84.3047H84.327H84.3493H84.3716H84.3939H84.4161H84.4384H84.4607H84.483H84.5053H84.5276H84.5499H84.5722H84.5944H84.6167H84.639H84.6613H84.6836H84.7059H84.7282H84.7505H84.7727H84.795H84.8173H84.8396H84.8619H84.8842H84.9065H84.9287H84.951H84.9733H84.9956H85.0179H85.0402H85.0625H85.0848H85.107H85.1293H85.1516H85.1739H85.1962H85.2185H85.2408H85.2631H85.2853H85.3076H85.3299H85.3522H85.3745H85.3968H85.4191H85.4413H85.4636H85.4859H85.5082H85.5305H85.5528H85.5751H85.5974H85.6196H85.6419H85.6642H85.6865H85.7088H85.7311H85.7534H85.7757H85.7979H85.8202H85.8425H85.8648H85.8871H85.9094H85.9317H85.9539H85.9762H85.9985H86.0208H86.0431H86.0654H86.0877H86.11H86.1322H86.1545H86.1768H86.1991H86.2214H86.2437H86.266H86.2883H86.3105H86.3328H86.3551H86.3774H86.3997H86.422H86.4443C89.238 34.3209 91.8847 35.1442 94.6886 36.0164C95.3099 36.2097 95.9389 36.4053 96.5789 36.595C97.1084 36.7519 97.6649 36.4498 97.8218 35.9203C97.9787 35.3907 97.6766 34.8343 97.1471 34.6774C96.5684 34.5059 95.9809 34.3224 95.3852 34.1364C92.5708 33.2575 89.572 32.3209 86.4443 32.3209H86.422H86.3997H86.3774H86.3551H86.3328H86.3105H86.2883H86.266H86.2437H86.2214H86.1991H86.1768H86.1545H86.1322H86.11H86.0877H86.0654H86.0431H86.0208H85.9985H85.9762H85.9539H85.9317H85.9094H85.8871H85.8648H85.8425H85.8202H85.7979H85.7757H85.7534H85.7311H85.7088H85.6865H85.6642H85.6419H85.6196H85.5974H85.5751H85.5528H85.5305H85.5082H85.4859H85.4636H85.4413H85.4191H85.3968H85.3745H85.3522H85.3299H85.3076H85.2853H85.2631H85.2408H85.2185H85.1962H85.1739H85.1516H85.1293H85.107H85.0848H85.0625H85.0402H85.0179H84.9956H84.9733H84.951H84.9287H84.9065H84.8842H84.8619H84.8396H84.8173H84.795H84.7727H84.7505H84.7282H84.7059H84.6836H84.6613H84.639H84.6167H84.5944H84.5722H84.5499H84.5276H84.5053H84.483H84.4607H84.4384H84.4161H84.3939H84.3716H84.3493H84.327H84.3047H84.2824H84.2601H84.2378H84.2156H84.1933H84.171H84.1487H84.1264H84.1041H84.0818H84.0595H84.0373H84.015H83.9927H83.9704H83.9481H83.9258H83.9035H83.8813H83.859H83.8367H83.8144H83.7921H83.7698H83.7475H83.7252H83.703H83.6807H83.6584H83.6361H83.6138H83.5915H83.5692H83.547H83.5247H83.5024H83.4801H83.4578H83.4355H83.4132H83.3909H83.3687H83.3464H83.3241H83.3018H83.2795H83.2572H83.2349H83.2126H83.1904H83.1681H83.1458H83.1235H83.1012H83.0789H83.0566H83.0343H83.0121H82.9898H82.9675H82.9452H82.9229H82.9006H82.8783H82.856H82.8338H82.8115H82.7892H82.7669H82.7446H82.7223H82.7H82.6778H82.6555H82.6332H82.6109H82.5886H82.5663H82.544H82.5217H82.4995H82.4772H82.4549H82.4326H82.4103H82.388H82.3657H82.3435H82.3212H82.2989H82.2766H82.2543H82.232H82.2097H82.1874H82.1652H82.1429H82.1206H82.0983H82.076H82.0537H82.0314H82.0091H81.9869H81.9646H81.9423H81.92H81.8977H81.8754H81.8531H81.8308H81.8086H81.7863H81.764H81.7417H81.7194H81.6971H81.6748H81.6525H81.6303H81.608H81.5857H81.5634H81.5411H81.5188H81.4965H81.4743H81.452H81.4297H81.4074H81.3851H81.3628H81.3405H81.3182H81.296H81.2737H81.2514H81.2291H81.2068H81.1845H81.1622H81.1399H81.1177H81.0954H81.0731H81.0508H81.0285H81.0062H80.9839H80.9617H80.9394H80.9171H80.8948H80.8725H80.8502H80.8279H80.8056H80.7834H80.7611H80.7388H80.7165H80.6942H80.6719H80.6496H80.6273H80.6051H80.5828H80.5605H80.5382H80.5159H80.4936H80.4713H80.4491H80.4268H80.4045H80.3822H80.3599H80.3376H80.3153H80.293H80.2708H80.2485H80.2262H80.2039H80.1816H80.1593H80.137H80.1147H80.0925H80.0702H80.0479H80.0256H80.0033H79.981H79.9587H79.9365H79.9142H79.8919H79.8696H79.8473H79.825H79.8027H79.7804H79.7582H79.7359H79.7136H79.6913H79.669H79.6467H79.6244H79.6021H79.5799H79.5576H79.5353H79.513H79.4907H79.4684H79.4461H79.4238H79.4016H79.3793H79.357H79.3347H79.3124H79.2901H79.2678H79.2456H79.2233H79.201H79.1787H79.1564H79.1341H79.1118H79.0895H79.0673H79.045H79.0227H79.0004H78.9781H78.9558H78.9335H78.9112H78.889H78.8667H78.8444H78.8221H78.7998H78.7775H78.7552H78.7329H78.7107H78.6884H78.6661H78.6438H78.6215H78.5992H78.5769H78.5547H78.5324H78.5101H78.4878H78.4655H78.4432H78.4209H78.3986H78.3764H78.3541H78.3318H78.3095H78.2872H78.2649H78.2426H78.2203H78.1981H78.1758H78.1535H78.1312H78.1089H78.0866H78.0643H78.0421H78.0198H77.9975H77.9752H77.9529H77.9306H77.9083H77.886H77.8638H77.8415H77.8192H77.7969H77.7746H77.7523H77.73H77.7077H77.6855H77.6632H77.6409H77.6186H77.5963H77.574H77.5517H77.5294H77.5072H77.4849H77.4626H77.4403H77.418H77.3957H77.3734H77.3512H77.3289H77.3066H77.2843H77.262H77.2397H77.2174H77.1951H77.1729H77.1506H77.1283H77.106H77.0837H77.0614H77.0391H77.0168H76.9946H76.9723H76.95H76.9277H76.9054H76.8831H76.8608H76.8386H76.8163H76.794H76.7717H76.7494H76.7271H76.7048H76.6825H76.6603H76.638H76.6157H76.5934H76.5711H76.5488H76.5265H76.5042H76.482H76.4597H76.4374H76.4151H76.3928H76.3705H76.3482H76.326H76.3037H76.2814H76.2591H76.2368H76.2145H76.1922H76.1699H76.1477H76.1254H76.1031H76.0808H76.0585H76.0362H76.0139H75.9916H75.9694H75.9471H75.9248H75.9025H75.8802H75.8579H75.8356H75.8133H75.7911H75.7688H75.7465H75.7242H75.7019H75.6796H75.6573H75.6351H75.6128H75.5905H75.5682H75.5459H75.5236H75.5013H75.479H75.4568H75.4345H75.4122H75.3899H75.3676H75.3453H75.323H75.3007H75.2785H75.2562H75.2339H75.2116H75.1893H75.167H75.1447H75.1225H75.1002H75.0779H75.0556H75.0333ZM56.4229 37.2678C56.9587 37.1339 57.2845 36.5909 57.1506 36.0551C57.0166 35.5193 56.4737 35.1936 55.9379 35.3275C55.6308 35.4043 55.3218 35.4813 55.011 35.5587C46.5615 37.6641 36.8126 40.0932 30.322 46.8505C29.9394 47.2488 29.9522 47.8819 30.3505 48.2645C30.7488 48.647 31.3818 48.6343 31.7644 48.236C37.8464 41.904 47.0844 39.5985 55.7062 37.4468L56.4229 37.2678ZM109.509 39.2025C109.731 38.697 110.321 38.4675 110.827 38.6899C116.577 41.2202 122.06 46.189 125.775 51.112C126.013 51.4271 126.255 51.7451 126.499 52.0662L126.499 52.0662L126.499 52.0663C128.178 54.2758 129.964 56.6259 131.314 59.1216C132.046 60.4755 132.677 61.8692 133.283 63.2374C133.361 63.4144 133.439 63.5909 133.517 63.7668C134.045 64.9608 134.561 66.1295 135.132 67.2719C135.379 67.7659 135.179 68.3666 134.685 68.6136C134.191 68.8606 133.591 68.6604 133.344 68.1664C132.749 66.9781 132.212 65.7622 131.686 64.5718C131.609 64.3965 131.532 64.2218 131.454 64.0477C130.849 62.6816 130.246 61.3514 129.555 60.0731C128.284 57.7238 126.601 55.5076 124.913 53.2857C124.668 52.963 124.423 52.6402 124.179 52.3168C120.606 47.5825 115.375 42.8762 110.021 40.5205C109.516 40.2981 109.286 39.708 109.509 39.2025ZM139.538 85.5798C139.538 85.0275 139.09 84.5798 138.538 84.5798C137.986 84.5798 137.538 85.0275 137.538 85.5798C137.538 88.526 137.621 91.4602 137.703 94.3761V94.3762V94.3763L137.704 94.3772L137.704 94.3786C137.786 97.3001 137.869 100.203 137.869 103.11C137.869 103.662 138.316 104.11 138.869 104.11C139.421 104.11 139.869 103.662 139.869 103.11C139.869 100.174 139.786 97.2471 139.703 94.3345L139.703 94.322C139.62 91.4006 139.538 88.4938 139.538 85.5798ZM137.326 119.412C137.822 119.656 138.025 120.256 137.781 120.751C136.882 122.574 136.068 124.435 135.242 126.321L135.172 126.483C134.325 128.417 133.465 130.375 132.505 132.296C132.286 132.733 132.063 133.208 131.833 133.695L131.833 133.696L131.833 133.696L131.833 133.696C131.46 134.49 131.071 135.316 130.662 136.066C129.975 137.327 129.137 138.567 127.943 139.59C127.524 139.95 126.892 139.901 126.533 139.482C126.174 139.062 126.222 138.431 126.641 138.072C127.579 137.268 128.279 136.26 128.906 135.108C129.298 134.39 129.629 133.684 129.975 132.947L129.975 132.946L129.975 132.946C130.208 132.449 130.447 131.939 130.716 131.401C131.65 129.533 132.491 127.62 133.339 125.681L133.417 125.503C134.237 123.629 135.068 121.731 135.987 119.867C136.231 119.371 136.831 119.168 137.326 119.412Z" fill="#080807"/>
</svg>
