<svg width="210" height="45" viewBox="0 0 210 45" fill="none" xmlns="http://www.w3.org/2000/svg">
<path d="M1.11429 24.1528C3.21379 19.4561 3.36535 15.9079 11.0628 15.2471C18.2538 14.6297 25.2023 15.8784 29.5635 20.2869C35.2976 26.0832 44.5897 32.9547 54.9539 26.1162C60.8495 22.2261 59.5026 18.6358 69.8182 18.5729C78.4834 18.5202 81.8811 22.7264 85.1013 27.2457C86.971 29.8697 91.3507 32.4909 95.286 33.9342C101.649 36.2679 103.119 25.1925 103.931 23.5471C107.986 15.3306 118.481 10.6532 131.161 18.5856C136.824 22.1281 148.154 38.7114 155.315 27.3996C160.074 19.8812 168.341 12.8794 183.255 17.3635C188.713 19.0046 192.417 26.7543 196.397 27.1229C200.775 27.5285 205.87 24.3872 208.666 22.9679" stroke="#CACACA" stroke-width="2" stroke-linecap="round"/>
</svg>
