<svg width="28" height="28" viewBox="0 0 28 28" fill="none" xmlns="http://www.w3.org/2000/svg">
<path d="M28 13.9975C28 18.1221 26.2156 21.8301 23.3766 24.3919C23.3642 24.4036 23.3514 24.415 23.3384 24.4262C20.8609 26.6454 17.5881 27.9949 14 27.9949C10.4119 27.9949 7.13905 26.6454 4.66157 24.4262C4.64854 24.415 4.63582 24.4036 4.6234 24.3919C1.78436 21.8301 0 18.1221 0 13.9975C0 6.26688 6.26801 0 14 0C21.732 0 28 6.26688 28 13.9975Z" fill="#080807"/>
<path d="M19.1684 10.7677C19.1684 13.6217 16.8545 15.9352 14 15.9352C11.1456 15.9352 8.83157 13.6217 8.83157 10.7677C8.83157 7.9138 11.1456 5.60023 14 5.60023C16.8545 5.60023 19.1684 7.9138 19.1684 10.7677Z" fill="white"/>
<path d="M10.1238 20.4568C7.98529 20.4568 6.1501 21.9664 5.36408 23.8179C10.1238 28.4191 18.5224 27.7731 22.6362 23.8179C21.8502 21.9664 20.015 20.4568 17.8765 20.4568H10.1238Z" fill="white"/>
<path fill-rule="evenodd" clip-rule="evenodd" d="M7.86249 10.7677C7.86249 7.37869 10.6104 4.63132 14 4.63132C17.3897 4.63132 20.1375 7.37869 20.1375 10.7677C20.1375 14.1568 17.3897 16.9041 14 16.9041C10.6104 16.9041 7.86249 14.1568 7.86249 10.7677ZM14 6.56914C11.6808 6.56914 9.80066 8.44891 9.80066 10.7677C9.80066 13.0866 11.6808 14.9663 14 14.9663C16.3193 14.9663 18.1994 13.0866 18.1994 10.7677C18.1994 8.44891 16.3193 6.56914 14 6.56914ZM6.56468 23.594C8.67013 25.3454 11.4488 26.1276 14.218 26.0579C16.9584 25.989 19.5872 25.0879 21.4327 23.5891C20.6668 22.3272 19.326 21.4257 17.8765 21.4257H10.1238C8.67248 21.4257 7.33002 22.3295 6.56468 23.594ZM4.47203 23.4394C5.3776 21.3062 7.5197 19.4879 10.1238 19.4879H17.8765C20.4806 19.4879 22.6227 21.3062 23.5283 23.4394L23.7891 24.0537L23.3079 24.5163C21.0443 26.6927 17.6687 27.9095 14.2668 27.9951C10.856 28.081 7.295 27.0322 4.69048 24.5145L4.21197 24.0519L4.47203 23.4394Z" fill="white"/>
</svg>
