<svg width="121" height="121" viewBox="0 0 121 121" fill="none" xmlns="http://www.w3.org/2000/svg">
<path d="M2.53371 45.2831C2.32257 49.5746 0.774188 57.0848 0 61.8054V76.8257C0 83.263 4.85627 93.5626 6.54541 95.7084C8.23455 97.8541 13.302 100.644 17.9471 107.081C22.5922 113.518 32.5159 115.664 36.5276 117.166C40.5393 118.668 51.941 124.032 75.8001 118.668C105.137 112.072 114.228 76.8257 115.495 65.4532C116.762 54.0807 111.272 47.4289 109.372 36.7001C107.471 25.9713 98.6034 21.8944 95.6475 17.6029C92.6915 13.3114 71.155 5.58666 57.6418 4.08463C44.1287 2.58261 27.4485 12.2385 24.4925 14.5988C21.5365 16.9592 13.5131 22.5381 8.44569 26.1859C3.37828 29.8337 2.74485 40.9916 2.53371 45.2831Z" fill="#F0C45E"/>
<g clip-path="url(#clip0_3_365)">
<path d="M49.5355 87.5955C51.8318 87.5955 53.6933 85.7019 53.6933 83.366C53.6933 81.0301 51.8318 79.1364 49.5355 79.1364C47.2392 79.1364 45.3777 81.0301 45.3777 83.366C45.3777 85.7019 47.2392 87.5955 49.5355 87.5955Z" fill="white"/>
<path d="M73.5596 81.9553C75.8559 81.9553 77.7174 80.0617 77.7174 77.7257C77.7174 75.3898 75.8559 73.4962 73.5596 73.4962C71.2633 73.4962 69.4018 75.3898 69.4018 77.7257C69.4018 80.0617 71.2633 81.9553 73.5596 81.9553Z" fill="white"/>
<path d="M78.6408 59.8683C80.9371 59.8683 82.7987 57.9746 82.7987 55.6387C82.7987 53.3028 80.9371 51.4092 78.6408 51.4092C76.3445 51.4092 74.483 53.3028 74.483 55.6387C74.483 57.9746 76.3445 59.8683 78.6408 59.8683Z" fill="white"/>
<path d="M29.2229 91.2892C34.1245 95.03 39.4049 98.3102 45.3183 100.096C51.6289 101.999 58.0735 102.164 64.5505 101.121C66.5093 100.806 66.5231 97.6335 66.3938 96.1954C65.2711 83.7277 59.7089 72.2327 57.6855 59.9388C57.5746 59.2526 56.6691 56.0899 55.334 57.2225C45.6971 65.3714 36.4298 74.0514 28.7609 84.1788C27.6845 85.5981 27.5598 87.835 28.0726 89.5033C28.396 90.5513 29.5879 92.3559 30.692 90.8991C38.1068 81.1006 47.023 72.6133 56.3503 64.7276L53.9989 62.0113C55.066 68.5201 56.8724 74.8268 58.7757 81.1241C60.4758 86.7541 62.1759 92.3794 62.7025 98.2679L64.5458 93.3428C58.2768 94.3485 51.8045 94.3579 45.7063 92.4029C40.0379 90.5842 34.9607 87.398 30.2347 83.7888C28.8764 82.7549 27.9941 85.7014 27.8832 86.5051C27.6614 88.1076 27.8462 90.2459 29.2183 91.2939L29.2229 91.2892Z" fill="white"/>
<path d="M66.9163 100.801C79.2188 96.6839 93.0551 86.9324 93.0736 72.331C93.0736 71.1984 92.7456 68.4398 91.161 68.4398C89.5764 68.4398 89.2484 71.2689 89.2484 72.331C89.2438 76.9459 85.4925 81.1285 82.3464 84.0328C77.6804 88.3375 71.841 91.3076 65.8953 93.2955C63.567 94.0756 64.0336 101.764 66.9117 100.801H66.9163Z" fill="white"/>
<path d="M55.9711 64.7326C68.1534 66.8709 79.7907 71.1145 91.1092 76.0819C91.6174 76.3075 92.2503 76.1947 92.5829 75.6919C96.7546 69.4133 95.5165 59.8122 94.1305 52.8382C92.5182 44.7033 89.6216 35.4829 82.9876 30.1255C82.484 29.7166 81.8604 30.2054 81.5139 30.5155C72.1496 38.9511 62.9469 47.6264 55.0009 57.486C53.8922 58.8582 53.8136 61.1798 54.3125 62.8105C54.6498 63.9055 55.7955 65.6161 56.932 64.2063C64.878 54.3514 74.0806 45.6714 83.445 37.2358L81.9712 37.6259C86.859 41.5735 89.1181 48.7778 90.4024 54.7274C91.0491 57.7257 91.4464 60.7991 91.4418 63.8444C91.4418 65.2731 91.4326 65.8793 91.1692 67.3596C91.1 67.745 90.7812 68.7789 90.6518 68.9716L92.1255 68.5815C80.4883 63.4778 68.4907 59.1543 55.9711 56.9549C53.5826 56.5367 53.1899 64.2486 55.9711 64.7373V64.7326Z" fill="white"/>
<path d="M31.1847 64.425C29.7087 62.635 28.4821 60.5825 27.4371 58.5085C26.5869 56.8154 25.8508 54.9702 25.4096 52.8416C25.5405 53.4689 25.3173 52.235 25.3 52.113C25.2735 51.9322 25.1617 50.1359 25.1747 51.0244C25.1695 50.7995 25.3396 48.8844 25.1838 50.0015C25.2281 49.6755 25.2815 49.351 25.3433 49.0327C25.229 49.4993 25.2206 49.5503 25.3188 49.1811C25.4948 48.4534 25.806 47.7582 26.4477 46.819C27.2019 45.7084 28.1118 44.791 29.1294 43.93C31.5621 41.8706 35.0523 39.4764 38.3644 39.5582C41.6766 39.64 44.4394 42.149 45.7731 45.1155C46.5557 46.8495 48.1803 45.7439 48.9815 44.8318C47.7896 46.1825 49.0803 44.7724 49.5637 44.34C50.4096 43.5832 51.3185 42.8705 52.3115 42.3294C55.2095 40.7446 58.2833 40.5953 61.0435 42.5511C64.2067 44.7899 66.8723 34.8272 64.0325 32.8149C57.9376 28.4959 51.0463 31.8605 46.5896 36.9111L49.798 36.6275C48.4778 33.6919 45.9346 31.1011 43.0046 29.8931C37.3814 27.5744 30.7591 31.7805 26.8258 35.6717C18.5221 43.8898 18.2691 56.3544 23.1263 66.4572C24.2183 68.7298 25.5397 70.9747 27.1409 72.9145C30.1944 76.6165 33.276 66.9723 31.1748 64.4281L31.1847 64.425Z" fill="white"/>
<path d="M87.0029 29.6558C89.4883 33.8995 91.3917 38.5661 92.9809 43.2186C96.2148 52.6834 98.0257 62.9659 96.2702 72.9335C94.0157 85.7491 84.6838 96.2055 73.2267 101.591C63.5528 106.14 52.7102 105.609 42.9439 101.671C37.5896 99.5139 32.226 96.4875 27.9111 92.554C26.2896 91.0736 22.5106 93.4986 24.5064 95.3173C36.4023 106.159 54.6921 111.559 70.0898 106.591C82.6972 102.526 94.5378 92.2767 99.0513 79.447C102.756 68.9155 101.846 57.3171 98.9035 46.7197C97.074 40.1357 94.5285 33.4765 91.0729 27.5786C89.9457 25.6565 85.7325 27.4799 87.0075 29.6511L87.0029 29.6558Z" fill="white"/>
<path d="M52.3264 27.7323C52.5743 26.3116 53.1028 24.4955 53.8892 22.9615C54.4346 21.8964 54.897 21.1078 55.6111 20.7813C57.0152 20.1338 58.7578 20.8159 60.0529 21.5698C62.2872 22.8787 66.0139 17.966 63.9505 16.7576C55.0901 11.5682 48.9284 21.5703 47.5608 29.4522C47.3228 30.8126 48.3666 31.4999 49.5654 31.1319C50.9457 30.7138 52.0786 29.1243 52.3219 27.7315L52.3264 27.7323Z" fill="white"/>
</g>
<path d="M7.32313 42.3563C7.11286 46.6478 5.57095 54.1579 4.79999 58.8786V73.8989C4.79999 80.3362 9.636 90.6358 11.3181 92.7815C13.0002 94.9273 18.0465 97.7168 22.6722 104.154C27.298 110.591 37.1803 112.737 41.1752 114.239C45.1702 115.741 56.5243 121.105 80.2839 115.741C109.498 109.145 118.551 73.8989 119.813 62.5264C121.075 51.1539 115.608 44.502 113.715 33.7733C111.823 23.0445 102.992 18.9676 100.048 14.676C97.1048 10.3845 75.6581 2.65983 62.2014 1.1578C48.7446 -0.344224 32.134 9.31167 29.1903 11.672C26.2467 14.0323 18.2567 19.6113 13.2104 23.2591C8.16417 26.9069 7.53339 38.0648 7.32313 42.3563Z" stroke="#080807" stroke-width="2"/>
<defs>
<clipPath id="clip0_3_365">
<rect width="87.7714" height="90.5923" fill="white" transform="translate(13.7143 17.8641)"/>
</clipPath>
</defs>
</svg>
