<svg width="121" height="121" viewBox="0 0 121 121" fill="none" xmlns="http://www.w3.org/2000/svg">
<path d="M2.53371 45.2831C2.32257 49.5746 0.774188 57.0848 0 61.8054V76.8257C0 83.263 4.85627 93.5626 6.54541 95.7084C8.23455 97.8541 13.302 100.644 17.9471 107.081C22.5922 113.518 32.5159 115.664 36.5276 117.166C40.5393 118.668 51.941 124.032 75.8001 118.668C105.137 112.072 114.228 76.8257 115.495 65.4532C116.762 54.0807 111.272 47.4289 109.372 36.7001C107.471 25.9713 98.6034 21.8944 95.6475 17.6029C92.6915 13.3114 71.155 5.58666 57.6418 4.08463C44.1287 2.5826 27.4485 12.2385 24.4925 14.5988C21.5365 16.9592 13.5131 22.5381 8.44569 26.1859C3.37828 29.8337 2.74485 40.9916 2.53371 45.2831Z" fill="#F0C45E"/>
<g clip-path="url(#clip0_3_368)">
<path d="M33.7358 71.874C40.34 74.9467 46.8912 78.1989 53.5679 81.097C56.8531 82.5236 59.4523 81.102 62.467 79.8201C66.8489 77.9595 71.226 76.094 75.6079 74.2334C77.0089 73.6348 78.468 73.1111 79.84 72.4327C81.9416 71.3952 84.1398 68.3325 82.9852 65.8534C82.4586 64.7311 81.2507 64.3969 80.2314 63.913C78.4245 63.0551 76.6176 62.1971 74.8107 61.3391C70.6752 59.3788 66.5397 57.4135 62.4042 55.4532C61.2495 54.9145 59.9982 54.1662 58.718 54.1014C57.2493 54.0316 55.8821 54.7997 54.568 55.3933L40.7024 61.6883C39.0839 62.4216 37.3688 63.06 35.8035 63.908C33.1464 65.3546 31.0883 69.4897 33.7358 71.874C35.818 73.7496 39.6733 67.4795 37.3592 65.3945L37.0065 65.0752L37.707 66.0828L37.5911 65.6489L37.3737 68.103L37.4945 67.6691L35.9098 70.0534C35.475 70.4375 35.8567 70.0733 36.1804 69.9586C36.7118 69.7641 37.2239 69.4847 37.7409 69.2503L42.8378 66.9408C46.611 65.2299 50.3841 63.5189 54.1525 61.808C55.0076 61.419 55.7275 60.9102 56.6212 61.0349C57.4135 61.1446 58.1865 61.6684 58.9016 62.0076L69.9119 67.2351L75.7528 70.0085C76.3809 70.3078 77.0331 70.7118 77.695 70.9313C78.8786 71.3203 77.951 71.5847 77.9752 70.3327L79.8739 66.2325C80.2314 65.8683 80.1009 66.1676 79.6564 66.3123C79.1395 66.4819 78.6322 66.7463 78.1298 66.9607C76.4534 67.674 74.7818 68.3873 73.1053 69.0957L61.8776 73.8693C61.0321 74.2284 60.0321 74.8719 59.1286 75.0365C58.2252 75.2011 57.2734 74.6674 56.4425 74.2833C52.9592 72.6621 49.4807 71.046 45.9974 69.4249C43.118 68.0831 40.2338 66.7463 37.3544 65.4045C34.475 64.0627 31.1028 70.6519 33.7358 71.874Z" fill="white"/>
<path d="M31.5429 69.1206V92.1158C31.5429 95.1485 31.6491 97.9319 34.7846 99.2737C38.4612 100.85 42.2198 102.252 45.935 103.738C49.2976 105.085 52.6601 106.432 56.0178 107.773C58.8585 108.911 62.279 102.351 59.6412 101.294C53.0562 98.6602 46.4761 96.0214 39.8912 93.3877C39.123 93.0785 38.0843 92.859 37.4031 92.3452C36.4804 91.6519 36.7702 90.6592 36.7702 89.5668V66.1277C36.7702 64.4816 35.4465 63.8581 34.1082 64.5415C32.5912 65.3147 31.5477 67.4196 31.5477 69.1256H31.5429V69.1206Z" fill="white"/>
<path d="M77.9233 71.6138C78.0054 75.9385 78.0827 80.2582 78.1649 84.5829L78.3291 93.4069L78.3871 96.4097C78.3919 96.7439 78.2422 97.971 78.4016 97.1479L80.2326 93.8757C80.4549 93.6563 81.624 93.2971 80.4742 93.6513C80.3776 93.6812 80.2906 93.7311 80.194 93.761C79.7398 93.9256 79.2954 94.1201 78.8461 94.2997L73.7153 96.3548C69.9083 97.8762 66.1062 99.4026 62.2992 100.924C61.7774 101.133 60.5696 101.922 59.9657 101.647C59.8739 101.607 60.1203 101.927 59.9657 101.702C59.9029 101.617 59.985 101.363 59.9657 101.253C59.8836 100.729 59.9657 100.121 59.9657 99.5921V77.1007C59.9657 75.4547 58.6419 74.8311 57.3037 75.5145C55.7867 76.2877 54.7432 78.3926 54.7432 80.0986V97.547C54.7432 99.9313 54.6079 102.365 54.7432 104.75C54.9364 108.077 57.41 109.134 60.1155 108.052C66.0337 105.683 71.9519 103.313 77.875 100.944C80.88 99.7417 83.4744 98.4149 83.6386 94.5192C83.7256 92.499 83.5613 90.4389 83.5227 88.4187C83.4019 81.8245 83.2763 75.2252 83.1555 68.6309C83.1265 66.9898 81.8511 66.3464 80.4935 67.0447C79.0007 67.8079 77.8992 69.9328 77.933 71.6288L77.9233 71.6138Z" fill="white"/>
</g>
<path d="M26.6397 22.4849C26.6397 21.7772 26.8406 21.2736 27.2424 20.9741C27.6442 20.6747 28.3071 20.525 29.2313 20.525C29.5527 20.525 29.8339 20.559 30.075 20.6271C30.3161 20.6951 30.517 20.8108 30.6777 20.9741C30.8384 21.1239 30.9656 21.3348 31.0594 21.607C31.1665 21.8656 31.2536 22.1991 31.3205 22.6074C31.4946 23.8188 31.6687 25.0914 31.8429 26.4252C32.0304 27.7454 32.2045 29.0657 32.3652 30.3859C32.5393 31.6925 32.7 32.9719 32.8473 34.2241C32.9946 35.4626 33.1219 36.6196 33.229 37.6948C33.3496 38.7564 33.4366 39.7024 33.4902 40.5326C33.5571 41.3492 33.5906 41.9958 33.5906 42.4721C33.5906 42.9621 33.5437 43.3772 33.45 43.7175C33.3696 44.0578 33.2223 44.33 33.008 44.5341C32.8071 44.7383 32.5393 44.888 32.2045 44.9833C31.883 45.0649 31.4812 45.1058 30.9991 45.1058C30.5304 45.1058 30.1554 44.9833 29.8741 44.7383C29.6063 44.4933 29.4723 44.119 29.4723 43.6154C29.4723 43.0982 29.4321 42.4109 29.3518 41.5534C29.2714 40.6823 29.1643 39.716 29.0304 38.6543C28.8964 37.5927 28.7424 36.463 28.5683 35.2653C28.4076 34.0676 28.2335 32.8834 28.046 31.7129C27.8719 30.5424 27.6978 29.4195 27.5237 28.3443C27.3629 27.2554 27.2156 26.2959 27.0817 25.4656C26.9478 24.6218 26.8406 23.9344 26.7603 23.4036C26.6799 22.8592 26.6397 22.553 26.6397 22.4849Z" fill="white"/>
<path d="M37.0661 38.9606C37.0661 38.7292 37.0929 38.4706 37.1464 38.1848C37.2 37.899 37.2268 37.5859 37.2268 37.2456C37.2268 37.0143 37.1263 36.8373 36.9254 36.7148C36.7379 36.5923 36.5237 36.4562 36.2826 36.3065C36.0415 36.1568 35.8205 35.9662 35.6196 35.7349C35.4321 35.5035 35.3384 35.17 35.3384 34.7345C35.3384 34.4214 35.4187 34.1084 35.5795 33.7953C35.7536 33.4823 36.0013 33.1965 36.3228 32.9379C37.1129 32.339 37.9299 31.8014 38.7737 31.325C39.6308 30.8486 40.4812 30.4471 41.325 30.1205C42.1821 29.7938 43.0259 29.542 43.8562 29.3651C44.6866 29.1882 45.4835 29.0997 46.2469 29.0997C47.5326 29.0997 48.7379 29.3447 49.8629 29.8347C51.0013 30.311 51.9857 30.9711 52.8161 31.815C53.6598 32.6453 54.3228 33.6252 54.8049 34.7549C55.3004 35.871 55.5482 37.0687 55.5482 38.3481C55.5482 39.6003 55.2871 40.7912 54.7647 41.9209C54.2558 43.037 53.5661 44.0169 52.6955 44.8608C51.825 45.7046 50.8004 46.3716 49.6219 46.8616C48.4567 47.3651 47.2246 47.6169 45.9254 47.6169C44.6531 47.6169 43.4746 47.3992 42.3897 46.9636C41.3049 46.5281 40.3674 45.9292 39.5772 45.167C38.7871 44.3912 38.171 43.4793 37.729 42.4313C37.2871 41.3697 37.0661 40.2128 37.0661 38.9606ZM46.3674 43.9421C46.9299 43.9421 47.5125 43.8264 48.1152 43.595C48.7179 43.3636 49.267 43.0302 49.7625 42.5946C50.2714 42.1455 50.6866 41.601 51.008 40.9613C51.3429 40.3216 51.5103 39.6003 51.5103 38.7973C51.5103 37.9806 51.3629 37.2184 51.0683 36.5107C50.7737 35.8029 50.3652 35.1904 49.8429 34.6732C49.3339 34.1424 48.7246 33.7273 48.0147 33.4279C47.3183 33.1284 46.5616 32.9787 45.7446 32.9787C44.258 32.9787 43.1196 33.3734 42.3295 34.1628C41.5393 34.9386 41.1442 36.1364 41.1442 37.756C41.1442 38.6407 41.2714 39.4642 41.5259 40.2264C41.7937 40.975 42.1621 41.6283 42.6308 42.1863C43.0996 42.7307 43.6487 43.1595 44.2781 43.4725C44.921 43.7855 45.6174 43.9421 46.3674 43.9421Z" fill="white"/>
<path d="M70.9567 37.0007C70.9567 34.8502 71.2112 33.1965 71.7201 32.0396C72.229 30.8827 72.9589 30.3042 73.9098 30.3042C75.4232 30.3042 76.1799 31.6313 76.1799 34.2853C76.1799 35.2245 76.1263 36.1092 76.0192 36.9394C75.9254 37.7697 75.7848 38.5727 75.5973 39.3485C75.5705 39.4574 75.5504 39.5594 75.5371 39.6547C75.5237 39.75 75.517 39.8385 75.517 39.9201C75.517 40.206 75.5705 40.4578 75.6777 40.6755C76.3473 42.4041 77.5862 43.2683 79.3942 43.2683C80.0371 43.2683 80.6397 43.1254 81.2022 42.8396C81.7647 42.5538 82.2536 42.1659 82.6687 41.6759C83.0839 41.1723 83.4054 40.5871 83.633 39.9201C83.8741 39.2532 83.9946 38.5318 83.9946 37.756C83.9946 36.885 83.8942 36.1636 83.6933 35.592C83.4924 35.0067 83.2714 34.5099 83.0304 34.1016C82.7893 33.6797 82.5683 33.2986 82.3674 32.9583C82.1665 32.6044 82.0661 32.2097 82.0661 31.7742C82.0661 31.57 82.1531 31.359 82.3272 31.1413C82.5147 30.9099 82.7424 30.6989 83.0103 30.5084C83.2915 30.3178 83.5929 30.1613 83.9143 30.0388C84.2491 29.9163 84.5638 29.8551 84.8585 29.8551C85.2469 29.8551 85.6286 30.0728 86.0036 30.5084C86.392 30.9439 86.7335 31.5156 87.0281 32.2233C87.3362 32.9175 87.5772 33.7137 87.7513 34.612C87.9388 35.5103 88.0326 36.4154 88.0326 37.3273C88.0326 38.6475 87.7915 39.8929 87.3094 41.0634C86.8272 42.2339 86.171 43.2615 85.3406 44.1462C84.5103 45.0309 83.5393 45.7319 82.4277 46.2491C81.3295 46.7663 80.1643 47.0249 78.9321 47.0249C77.8875 47.0249 76.9567 46.8343 76.1397 46.4532C75.3362 46.0857 74.5929 45.4324 73.9098 44.4933C73.8027 44.3164 73.6955 44.1939 73.5884 44.1258C73.4812 44.0578 73.3741 44.0237 73.267 44.0237C73.133 44.0237 73.0125 44.0578 72.9054 44.1258C72.7982 44.1939 72.6844 44.3164 72.5638 44.4933C71.6531 45.7046 70.6754 46.5689 69.6308 47.0861C68.5996 47.6033 67.4612 47.8619 66.2156 47.8619C64.8362 47.8619 63.5906 47.474 62.479 46.6982C61.3808 45.936 60.4433 44.8472 59.6665 43.4317C58.8897 42.0162 58.2937 40.3012 57.8786 38.2869C57.4634 36.2589 57.2558 33.9927 57.2558 31.4883C57.2558 30.4675 57.296 29.6237 57.3763 28.9568C57.4567 28.2762 57.604 27.7454 57.8183 27.3643C58.0326 26.9696 58.3138 26.6974 58.6621 26.5477C59.0103 26.3844 59.4589 26.3027 60.008 26.3027C60.5839 26.3027 60.9991 26.4184 61.2536 26.6498C61.5214 26.8675 61.6554 27.2486 61.6554 27.7931C61.6554 28.215 61.6152 28.6914 61.5348 29.2222C61.4545 29.7394 61.4143 30.1885 61.4143 30.5696C61.4143 32.5432 61.5482 34.3602 61.8161 36.0207C62.0973 37.6812 62.479 39.1103 62.9612 40.308C63.4567 41.5058 64.0393 42.4381 64.7089 43.105C65.392 43.7719 66.142 44.1054 66.9589 44.1054C68.7804 44.1054 70.1263 43.1595 70.9969 41.2676C71.0772 41.1179 71.1308 40.9818 71.1576 40.8593C71.1844 40.7232 71.1978 40.5802 71.1978 40.4305C71.1978 40.3489 71.1978 40.2672 71.1978 40.1855C71.1978 40.0903 71.1844 39.9882 71.1576 39.8793C71.0906 39.3621 71.0371 38.8721 70.9969 38.4094C70.9701 37.933 70.9567 37.4634 70.9567 37.0007Z" fill="white"/>
<path d="M7.32314 42.3563C7.11288 46.6478 5.57096 54.1579 4.8 58.8786V73.8989C4.8 80.3362 9.63601 90.6358 11.3181 92.7815C13.0002 94.9273 18.0465 97.7168 22.6722 104.154C27.298 110.591 37.1803 112.737 41.1752 114.239C45.1702 115.741 56.5243 121.105 80.2839 115.741C109.498 109.145 118.551 73.8989 119.813 62.5264C121.075 51.1539 115.608 44.502 113.715 33.7733C111.823 23.0445 102.992 18.9676 100.048 14.676C97.1048 10.3845 75.6581 2.65983 62.2014 1.1578C48.7446 -0.344224 32.134 9.31167 29.1903 11.672C26.2467 14.0323 18.2567 19.6113 13.2105 23.2591C8.16418 26.9069 7.5334 38.0648 7.32314 42.3563Z" stroke="#080807" stroke-width="2"/>
<defs>
<clipPath id="clip0_3_368">
<rect width="52.1143" height="54.3554" fill="white" transform="translate(31.5429 54.101)"/>
</clipPath>
</defs>
</svg>
