<svg width="121" height="121" viewBox="0 0 121 121" fill="none" xmlns="http://www.w3.org/2000/svg">
<path d="M2.53371 45.2831C2.32257 49.5746 0.774188 57.0848 0 61.8054V76.8257C0 83.263 4.85627 93.5626 6.54541 95.7084C8.23455 97.8541 13.302 100.644 17.9471 107.081C22.5922 113.518 32.5159 115.664 36.5276 117.166C40.5393 118.668 51.941 124.032 75.8001 118.668C105.137 112.072 114.228 76.8257 115.495 65.4532C116.762 54.0807 111.272 47.4289 109.372 36.7001C107.471 25.9713 98.6034 21.8944 95.6475 17.6029C92.6915 13.3114 71.155 5.58666 57.6418 4.08463C44.1287 2.5826 27.4485 12.2385 24.4925 14.5988C21.5365 16.9592 13.5131 22.5381 8.44569 26.1859C3.37828 29.8337 2.74485 40.9916 2.53371 45.2831Z" fill="#F0C45E"/>
<g clip-path="url(#clip0_3_367)">
<path d="M34.6297 74.031C34.5907 73.9455 34.5572 73.8657 34.5237 73.7802C34.0719 72.7029 34.8361 74.8632 34.6353 74.0994C34.3954 73.1874 34.0328 72.3039 33.793 71.3918C33.6479 70.8446 33.3132 68.7071 33.6033 70.7078C33.4917 69.9554 33.3299 69.2087 33.2295 68.4563C33.1793 68.0915 33.1514 67.7324 33.1012 67.3676C32.9339 66.0793 33.0789 66.9742 33.0789 67.3048C33.0789 66.3871 33.0343 65.4694 33.0454 64.5517C33.0622 62.95 32.9506 64.9564 33.0454 64.2952C33.1068 63.8563 33.1291 63.4117 33.1905 62.9671C33.2519 62.5225 33.3299 62.0664 33.3969 61.6161C33.6033 60.2025 33.1514 62.2773 33.5531 60.9036C33.7093 60.3792 33.832 59.8491 33.9938 59.3247C34.0607 59.1024 34.6744 57.4151 34.2392 58.5267C34.6688 57.4208 35.1708 56.3435 35.7287 55.2947C37.9824 51.0994 42.2722 46.8528 46.707 43.9116C55.1417 38.3198 62.8343 33.3151 74.7666 33.3151L73.3608 31.1404C74.4542 32.1208 75.4472 34.6204 76.3955 35.7433C77.4275 36.9631 78.3759 38.24 79.2851 39.5567C79.4358 39.7733 80.0829 40.7993 79.5473 39.9443C79.7705 40.3034 79.988 40.6625 80.2 41.0273C80.6965 41.8823 81.1595 42.7545 81.5779 43.6494C81.7954 44.1111 81.9963 44.5842 82.2027 45.0516C82.2975 45.2625 82.3756 45.4791 82.4648 45.69C82.7103 46.3113 82.1748 44.8806 82.3979 45.519C82.7661 46.5906 83.0729 47.6679 83.3351 48.7681C83.0562 47.5995 83.3183 48.6655 83.3853 49.1956C83.4522 49.6858 83.4913 50.176 83.5582 50.6605C83.3239 48.9619 83.5303 50.7517 83.5471 51.2077C83.5973 52.895 83.6419 51.0367 83.5415 51.8005C83.4634 52.3876 83.3909 52.9748 83.296 53.5562C83.3741 53.0888 83.3407 53.4308 83.0673 54.3713C82.9892 54.6506 82.5039 56.0528 82.8219 55.2263C82.5597 55.916 82.2473 56.5943 81.9182 57.2498C80.7188 59.6382 79.0955 61.7016 77.143 63.7309C69.9134 71.2436 59.822 78.5513 50.3275 82.188C46.9358 83.4876 47.7279 91.9579 51.8113 90.396C67.2692 84.4736 85.3489 75.0456 88.6458 56.7824C90.5647 46.1517 86.7714 35.4868 80.3004 27.2273C79.0843 25.6712 77.7566 23.9612 76.2114 22.7185C74.6662 21.4759 72.9369 22.2853 71.1071 22.7071C68.3291 23.3513 65.5622 24.0866 62.8343 24.9302C58.2209 26.3552 53.6913 28.1223 49.4237 30.4194C38.1051 36.5128 29.6203 46.5678 27.8352 59.7693C26.8478 67.0882 27.6065 75.3135 30.6858 82.0909C31.662 84.2399 33.6033 84.0119 34.6297 82.0909C35.8626 79.7824 35.6896 76.3623 34.6297 74.031Z" fill="white"/>
<path d="M66.1152 41.5048C59.7726 47.3303 53.8706 53.7772 48.4929 60.5261C40.2982 70.8148 31.7967 83.4178 33.1578 97.3375C33.3196 98.9905 34.413 102.251 36.5886 101.316C38.7642 100.381 38.7139 96.129 38.5354 94.305C38.4741 93.6552 38.4741 93.7008 38.541 94.4475C38.5354 94.134 38.541 93.8205 38.5466 93.5127C38.2956 94.9548 38.6526 92.8743 38.6916 92.6121C38.8757 91.4207 38.5466 93.0738 38.8199 91.9794C38.9929 91.2896 39.1937 90.6113 39.4112 89.933C40.1364 87.6701 41.492 84.9625 42.8197 82.6084C45.7762 77.3529 49.458 72.5249 53.296 67.9135C58.1437 62.0822 63.3483 56.4619 68.9268 51.3432C71.5319 48.9492 69.9365 37.9879 66.1097 41.4991L66.1152 41.5048Z" fill="white"/>
</g>
<path d="M7.32314 42.3563C7.11288 46.6478 5.57096 54.1579 4.8 58.8786V73.8989C4.8 80.3362 9.63602 90.6358 11.3181 92.7815C13.0002 94.9273 18.0465 97.7168 22.6722 104.154C27.298 110.591 37.1803 112.737 41.1752 114.239C45.1702 115.741 56.5243 121.105 80.2839 115.741C109.498 109.145 118.551 73.8989 119.813 62.5264C121.075 51.1539 115.608 44.502 113.715 33.7733C111.823 23.0445 102.992 18.9676 100.048 14.676C97.1048 10.3845 75.6581 2.65983 62.2014 1.1578C48.7447 -0.344224 32.134 9.31167 29.1903 11.672C26.2467 14.0323 18.2567 19.6113 13.2105 23.2591C8.16419 26.9069 7.5334 38.0648 7.32314 42.3563Z" stroke="#080807" stroke-width="2"/>
<defs>
<clipPath id="clip0_3_367">
<rect width="61.7143" height="79.4425" fill="white" transform="translate(27.4286 22.0453)"/>
</clipPath>
</defs>
</svg>
