<svg width="125" height="122" viewBox="0 0 125 122" fill="none" xmlns="http://www.w3.org/2000/svg">
<path d="M3.94087 44.3424C3.80556 48.7016 2.32799 56.355 1.60876 61.1615L1.91297 76.4032C2.04335 82.9354 7.36321 93.2848 9.18449 95.4267C11.0058 97.5686 16.3958 100.293 21.4152 106.727C26.4346 113.162 36.9228 115.131 41.1755 116.571C45.4283 118.011 57.5373 123.215 82.5404 117.27C113.284 109.96 122.139 74.0036 123.242 62.4368C124.345 50.8701 118.432 44.2355 116.215 33.3885C113.997 22.5415 104.581 18.5907 101.383 14.2981C98.1849 10.0054 75.3611 2.61923 61.1081 1.37893C46.855 0.13863 29.4946 10.2873 26.4312 12.7445C23.3678 15.2017 15.0361 21.0315 9.77648 24.8395C4.51688 28.6475 4.07618 39.9832 3.94087 44.3424Z" stroke="#080807" stroke-width="2"/>
</svg>
