<svg width="121" height="121" viewBox="0 0 121 121" fill="none" xmlns="http://www.w3.org/2000/svg">
<path d="M2.53371 44.6625C2.32257 48.9892 0.774188 56.5609 0 61.3202V76.4636C0 82.9536 4.85627 93.3377 6.54541 95.501C8.23455 97.6644 13.302 100.477 17.9471 106.967C22.5922 113.457 32.5159 115.62 36.5276 117.134C40.5393 118.649 51.941 124.057 75.8001 118.649C105.137 111.999 114.228 76.4636 115.495 64.9979C116.762 53.5322 111.272 46.8258 109.372 36.0091C107.471 25.1924 98.6034 21.082 95.6475 16.7554C92.6915 12.4287 71.155 4.64065 57.6418 3.12631C44.1287 1.61197 27.4485 11.347 24.4925 13.7267C21.5365 16.1064 13.5131 21.7311 8.44569 25.4087C3.37828 29.0864 2.74485 40.3358 2.53371 44.6625Z" fill="#F0C45E"/>
<g clip-path="url(#clip0_3_364)">
<path d="M27.5227 47.9051C32.5927 51.2221 37.5064 54.8513 42.2101 58.6918C45.6389 61.4904 49.014 64.4651 51.8665 67.8979C53.0143 69.2821 53.7372 70.2184 54.3869 71.7083C54.5822 72.1562 54.3185 71.5069 54.3038 71.4667C54.3722 71.6781 54.4357 71.8945 54.4894 72.1059C54.6311 72.72 54.8069 73.329 54.929 73.9481C55.227 75.438 55.4126 76.9581 55.5689 78.4682C55.8815 81.4631 55.9547 84.4781 55.9254 87.4881C55.9157 88.53 55.8912 89.5669 55.8473 90.6088C55.8229 91.238 55.6812 93.4527 55.8571 90.79L58.861 87.2767C49.9958 83.6375 40.8229 78.9212 33.5207 72.5388C28.7096 68.3308 24.4993 62.331 25.7155 55.8127C26.1062 53.7288 26.8828 51.7708 27.9232 49.7977C28.7243 48.2776 28.4752 48.5997 29.4081 47.3967C30.8148 45.5797 30.9125 42.6603 30.2824 40.511C29.8721 39.1117 28.3628 36.8668 26.9415 38.704C21.0313 46.3347 19.0727 57.6046 21.7445 66.8812C25.4224 79.641 37.5406 87.0603 48.3986 92.6776C51.3927 94.2279 54.4406 95.7077 57.5568 96.9862C59.452 97.7614 60.463 94.9326 60.5607 93.4729C60.8489 89.124 60.888 84.77 60.6291 80.4211C60.2725 74.4162 59.8769 67.5959 56.6288 62.4014C51.6076 54.3731 43.0941 48.3732 35.6406 42.9522C33.3986 41.3214 31.1323 39.7207 28.8171 38.2057C25.9353 36.3181 24.6946 46.0629 27.5178 47.9152L27.5227 47.9051Z" fill="white"/>
<path d="M61.2979 64.0226C60.8388 66.3782 61.1416 64.7575 61.2979 64.2038C61.5324 63.3632 61.7962 62.5428 62.0746 61.7173C62.353 60.8918 61.7766 62.4521 62.099 61.6418C62.2162 61.3448 62.3334 61.0478 62.4555 60.7508C62.7291 60.0965 63.0173 59.4472 63.325 58.8079C64.0039 57.3935 64.8049 55.9036 65.6109 54.6604C70.9642 46.3552 79.1455 40.909 88.3379 38.0903L86.4574 37.5819C86.433 37.5416 85.9299 36.6306 86.4574 37.6121C86.8384 38.3168 87.2096 39.0215 87.5418 39.7513C87.7616 40.2345 87.957 40.7278 88.1621 41.2161C88.4503 41.9056 87.8886 40.4107 88.1377 41.1557C88.2549 41.503 88.377 41.8452 88.4894 42.1925C88.7043 42.8519 88.8948 43.5214 89.0657 44.1959C89.1585 44.5583 89.2367 44.9207 89.3246 45.2831C89.4711 45.9123 89.1634 44.4022 89.2757 45.0566C89.3148 45.2831 89.3637 45.5046 89.3979 45.726C89.5248 46.5515 89.6225 47.377 89.7202 48.2075C89.8716 49.4961 89.7202 47.6186 89.7446 48.5649C89.7593 49.0884 89.7739 49.6118 89.7739 50.1353C89.7739 50.6085 89.7544 51.0816 89.7349 51.5547C89.7105 52.1437 89.7495 51.3081 89.7544 51.2527C89.73 51.5346 89.7105 51.8165 89.6763 52.0984C89.6176 52.6017 89.5542 53.105 89.4809 53.6084C89.3783 54.2929 89.3099 54.6402 89.3099 54.6251C88.2842 59.3465 86.1937 63.6249 83.3217 67.5913C78.2028 74.6633 71.4331 80.1648 64.2579 84.8711C61.4689 86.7033 62.646 96.4883 65.5571 94.5806C77.7193 86.6026 89.4369 75.7153 93.2565 60.8414C95.562 51.8719 94.9709 42.3133 91.4786 33.7615C90.7801 32.0552 89.9449 30.4093 88.9192 28.8841C88.4356 28.1694 87.7372 28.1643 87.0387 28.3757C72.2243 32.9159 59.691 45.4391 56.5943 61.3347C56.2621 63.031 56.4868 66.6651 58.2989 67.5259C60.282 68.4671 61.0488 65.3111 61.3028 64.0125L61.2979 64.0226Z" fill="white"/>
</g>
<path d="M7.32313 42.6953C7.11286 47.022 5.57095 54.5937 4.79999 59.353V74.4964C4.79999 80.9864 9.636 91.3705 11.3181 93.5338C13.0002 95.6972 18.0465 98.5095 22.6722 105C27.298 111.49 37.1803 113.653 41.1752 115.167C45.1702 116.682 56.5243 122.09 80.2839 116.682C109.498 110.032 118.551 74.4964 119.813 63.0307C121.075 51.565 115.608 44.8586 113.715 34.0419C111.823 23.2252 102.992 19.1148 100.048 14.7881C97.1048 10.4615 75.6581 2.67344 62.2014 1.1591C48.7446 -0.355243 32.134 9.3798 29.1903 11.7595C26.2467 14.1392 18.2567 19.7638 13.2104 23.4415C8.16417 27.1192 7.53339 38.3686 7.32313 42.6953Z" stroke="#080807" stroke-width="2"/>
<defs>
<clipPath id="clip0_3_364">
<rect width="74.0571" height="68.8525" fill="white" transform="translate(20.5714 28.26)"/>
</clipPath>
</defs>
</svg>
