<svg width="121" height="121" viewBox="0 0 121 121" fill="none" xmlns="http://www.w3.org/2000/svg">
<path d="M2.53371 45.2831C2.32257 49.5746 0.774188 57.0848 0 61.8054V76.8257C0 83.263 4.85627 93.5626 6.54541 95.7084C8.23455 97.8541 13.302 100.644 17.9471 107.081C22.5922 113.518 32.5159 115.664 36.5276 117.166C40.5393 118.668 51.941 124.032 75.8001 118.668C105.137 112.072 114.228 76.8257 115.495 65.4532C116.762 54.0807 111.272 47.4289 109.372 36.7001C107.471 25.9713 98.6034 21.8944 95.6475 17.6029C92.6915 13.3114 71.155 5.58666 57.6418 4.08463C44.1287 2.58261 27.4485 12.2385 24.4925 14.5988C21.5365 16.9592 13.5131 22.5381 8.44569 26.1859C3.37828 29.8337 2.74485 40.9916 2.53371 45.2831Z" fill="#F0C45E"/>
<path d="M24.4523 50.9157C26.7663 49.3672 24.9842 50.5656 24.4137 51.0649C23.9984 51.4253 22.7681 52.8879 23.9798 51.39C23.5086 51.9695 23.0103 52.521 22.5485 53.1044C22.4262 53.2571 21.7227 54.2737 22.283 53.434C22.9249 52.4743 21.8826 54.1368 21.8664 54.1631C21.6524 54.5418 21.4412 54.9271 21.2506 55.3156C21.7832 54.2329 21.5571 54.8986 21.2074 55.6116C20.6863 56.666 21.4457 54.4827 21.1664 55.6991C21.0166 56.3526 20.802 56.99 20.6823 57.6506C20.8176 56.8974 20.6438 58.0974 20.6317 58.2355C20.5676 58.8809 20.4845 59.5458 20.4844 60.1959C20.4764 64.033 19.1567 68.3012 16.161 70.8534C13.8539 72.8181 10.8437 72.13 10.8525 68.6294C10.8765 56.4956 15.5694 43.249 25.9498 36.3138C29.1067 34.2038 30.1909 39.0439 29.9927 41.1703C29.6299 45.002 27.644 48.7873 24.4636 50.9149L24.4523 50.9157Z" fill="white"/>
<path d="M37.6764 32.5053C37.767 32.4366 37.8777 32.3777 37.9733 32.3124C38.5569 31.92 36.8764 32.7113 37.5255 32.5543C37.7368 32.5053 37.9481 32.3385 38.1393 32.26C39.4475 31.7205 40.7858 31.2628 42.2449 30.9064C48.0008 29.5004 55.3566 29.556 61.8018 29.9484C65.057 30.1478 65.8721 26.0869 65.8268 24.7169C65.7715 23.0592 65.1979 19.6914 61.8018 19.4854C54.5415 19.0408 47.0096 19.1323 40.1015 20.8162C37.7821 21.3818 35.2664 22.232 33.6061 23.4679C31.196 25.2597 31.1608 28.4672 32.1621 30.6252C32.8765 32.1685 35.2262 34.3167 37.6714 32.502L37.6764 32.5053Z" fill="white"/>
<path d="M37.2409 49.3039C34.8801 54.3367 32.8748 59.4664 32.0727 64.9984C31.0979 71.7021 31.6817 78.5331 32.1336 85.2521C32.2808 87.4374 34.078 92.5059 37.1292 90.9471C40.1803 89.3884 40.16 83.785 39.9671 80.9222C40.028 81.8442 39.8808 79.4297 39.8859 79.4755C39.8554 78.9304 39.825 78.3854 39.7996 77.8403C39.7386 76.5057 39.6879 75.1762 39.6777 73.8416C39.6676 72.8075 39.7742 71.7479 39.7285 70.7189C39.6828 69.69 39.5305 72.4305 39.7183 70.9176C39.7843 70.3878 39.83 69.8632 39.9062 69.3334C39.9671 68.9106 40.0585 68.4878 40.1194 68.065C40.2463 67.1379 39.6625 69.6136 40.094 68.2789C40.358 67.4639 40.556 66.6285 40.8302 65.8135C40.9063 65.5944 41.5663 63.9236 40.9571 65.4161C41.1398 64.9628 41.3277 64.5145 41.5155 64.0662C41.9826 62.9761 42.4801 61.9013 42.9827 60.8264C44.5819 57.4186 44.7342 52.6914 42.9827 49.2988C41.5105 46.4462 38.6877 46.2169 37.2409 49.2988V49.3039Z" fill="white"/>
<path d="M58.3531 48.0978C61.9552 43.9959 66.4427 40.1286 71.504 37.341C74.6568 35.6052 79.3129 34.9532 82.7761 35.9991C85.732 36.8929 86.1717 39.1745 83.3228 40.7423C79.0876 43.0745 75.5145 46.4205 72.5058 49.8439C70.3634 52.2841 64.868 52.7512 61.7411 52.3455C59.0039 51.9911 56.1792 50.5715 58.3527 48.0936L58.3531 48.0978Z" fill="white"/>
<path d="M94.0276 64.2565C93.7269 64.7859 93.3778 65.2869 93.0682 65.8111C92.6584 66.5118 94.4076 63.8972 93.4662 65.2035C93.2775 65.4634 93.0995 65.7354 92.9152 65.9978C92.38 66.7543 91.8246 67.5049 91.2523 68.2337C90.999 68.5557 90.7414 68.875 90.4837 69.1944C90.4887 69.1856 89.221 70.6534 89.8724 69.9298C90.5239 69.2062 89.1376 70.6868 89.1614 70.6655C88.8422 70.99 88.5162 71.3163 88.1863 71.6286C87.768 72.0243 87.341 72.4149 86.9013 72.7863C85.9863 73.5611 88.1133 72.0151 86.3676 73.179C85.4242 73.8077 84.4845 74.4092 83.4763 74.9353C80.3031 76.5791 77.9435 81.4237 77.8047 84.9185C77.6658 88.4133 79.9491 89.306 82.7773 87.8362C90.531 83.8154 96.7621 75.9016 101.062 68.384C102.239 66.3334 104.466 60.9696 101.555 59.2619C98.6443 57.5541 95.1247 62.3357 94.0276 64.2565Z" fill="white"/>
<path d="M58.2924 77.6285C58.7798 78.2347 59.191 78.8867 59.653 79.5082C60.3333 80.4149 59.0184 78.4028 59.7037 79.5795C59.8967 79.9157 60.1048 80.2417 60.3028 80.5728C60.8308 81.4796 61.3232 82.4067 61.7802 83.3542C61.9832 83.782 62.1711 84.2201 62.3691 84.6531C63.0291 86.054 62.166 83.833 62.5924 85.2186C62.7701 85.7993 62.9427 86.3902 63.1255 86.9658C63.7043 88.7589 63.0392 85.5497 63.227 87.4344C63.2727 87.8878 63.2829 89.8082 63.3032 87.735C63.288 89.4873 63.4555 86.1457 63.3032 88.0508C63.2017 89.3752 63.0037 87.5567 63.2321 88.2495C63.0849 88.7028 63.1103 88.657 63.3032 88.1068C63.1204 88.5093 62.9174 88.9015 62.694 89.2835C60.9222 92.5182 61.0186 97.5613 62.694 100.811C64.2475 103.827 66.8468 103.715 68.4359 100.811C74.8936 89.0238 70.3701 73.4922 62.3945 63.559C60.0591 60.6503 57.5207 64.2008 56.8353 66.4829C55.8098 69.9061 55.952 74.725 58.2924 77.6336V77.6285Z" fill="white"/>
<path d="M20.4078 73.0131C22.7407 73.9906 23.8622 76.6806 22.9126 79.0215C21.9629 81.3623 19.3019 82.4676 16.9689 81.4902C14.6359 80.5127 13.5145 77.8227 14.4641 75.4818C15.4137 73.141 18.0748 72.0357 20.4078 73.0131Z" fill="white"/>
<path d="M83.0607 32.6082C85.5841 32.6082 87.6298 30.5556 87.6298 28.0236C87.6298 25.4916 85.5841 23.439 83.0607 23.439C80.5372 23.439 78.4915 25.4916 78.4915 28.0236C78.4915 30.5556 80.5372 32.6082 83.0607 32.6082Z" fill="white"/>
<path d="M49.2475 47.9392C51.771 47.9392 53.8167 45.8866 53.8167 43.3546C53.8167 40.8226 51.771 38.77 49.2475 38.77C46.7241 38.77 44.6784 40.8226 44.6784 43.3546C44.6784 45.8866 46.7241 47.9392 49.2475 47.9392Z" fill="white"/>
<path d="M79.9977 67.4514C82.5212 67.4514 84.5669 65.3988 84.5669 62.8668C84.5669 60.3348 82.5212 58.2822 79.9977 58.2822C77.4743 58.2822 75.4286 60.3348 75.4286 62.8668C75.4286 65.3988 77.4743 67.4514 79.9977 67.4514Z" fill="white"/>
<path d="M48.4548 102.295C50.9783 102.295 53.024 100.242 53.024 97.71C53.024 95.178 50.9783 93.1254 48.4548 93.1254C45.9314 93.1254 43.8857 95.178 43.8857 97.71C43.8857 100.242 45.9314 102.295 48.4548 102.295Z" fill="white"/>
<path d="M7.32313 42.3563C7.11286 46.6478 5.57095 54.1579 4.79999 58.8786V73.8989C4.79999 80.3362 9.636 90.6358 11.3181 92.7815C13.0002 94.9273 18.0465 97.7168 22.6722 104.154C27.298 110.591 37.1803 112.737 41.1752 114.239C45.1702 115.741 56.5243 121.105 80.2839 115.741C109.498 109.145 118.551 73.8989 119.813 62.5264C121.075 51.1539 115.608 44.502 113.715 33.7733C111.823 23.0445 102.992 18.9676 100.048 14.676C97.1048 10.3845 75.6581 2.65983 62.2014 1.1578C48.7446 -0.344224 32.134 9.31167 29.1903 11.672C26.2467 14.0323 18.2567 19.6113 13.2104 23.2591C8.16417 26.9069 7.53339 38.0648 7.32313 42.3563Z" stroke="#080807" stroke-width="2"/>
</svg>
