<svg width="50" height="52" viewBox="0 0 50 52" fill="none" xmlns="http://www.w3.org/2000/svg">
<path d="M48.3149 25C47.0116 15.25 44.1928 9.37378 36.5848 4.98529M48.3149 25C48.3149 28.7731 48.2237 34.7527 47.0116 38.25M48.3149 25C37.238 24.2348 31.554 26.702 20.5033 29.3418M20.4234 1C13.8567 1 6.7011 2.82042 1 7.5C8.02844 15.2136 14.6934 22.6372 20.3562 29.549M20.4234 1C26.6085 1 32.1096 2.40381 36.5848 4.98529M20.4234 1L20.3562 29.549M36.5848 4.98529C31.6085 14.3694 28.2408 19.6859 20.5033 29.3418M47.0116 38.25C45.3233 43.1209 42.5073 47.541 38.876 51C30.4268 43.5746 25.9013 36.3172 20.3562 29.549M47.0116 38.25C36.5848 34.75 31.2674 32.192 20.5033 29.3418M20.5033 29.3418C19.9671 29.5884 20.8714 29.3151 20.3562 29.549" stroke="#4F4F4F" stroke-width="2" stroke-linecap="round" stroke-linejoin="round"/>
</svg>
