<svg width="40" height="40" viewBox="0 0 40 40" fill="none" xmlns="http://www.w3.org/2000/svg">
<path d="M17.5005 25.9284L16.1434 21.1784" stroke="#F0C45E" stroke-width="1.66667" stroke-linecap="round"/>
<path d="M14.7856 11L12.0713 15.0714M24.2855 11L26.9998 15.0714" stroke="#F0C45E" stroke-width="1.66667" stroke-linecap="round"/>
<path d="M21.5713 25.9284L22.9284 21.1784" stroke="#F0C45E" stroke-width="1.66667" stroke-linecap="round"/>
<path d="M9.35688 17.7856V17.7856C10.1498 17.7856 10.8364 18.3363 11.0084 19.1104L12.2682 24.7793C12.8243 27.282 13.1024 28.5334 14.0164 29.2666C14.9304 29.9998 16.2123 29.9998 18.7761 29.9998H20.2947C22.8584 29.9998 24.1403 29.9998 25.0543 29.2666C25.9683 28.5334 26.2464 27.282 26.8026 24.7793L28.0623 19.1104C28.2344 18.3363 28.9209 17.7856 29.7139 17.7856V17.7856" stroke="#F0C45E" stroke-width="1.66667" stroke-linecap="round"/>
<path d="M29.7143 17.7859H9.35726C8.60774 17.7859 8.00013 17.1783 8.00013 16.4288C8.00013 15.6792 8.60774 15.0716 9.35726 15.0716H29.7143C30.4638 15.0716 31.0714 15.6792 31.0714 16.4288C31.0714 17.1783 30.4638 17.7859 29.7143 17.7859Z" stroke="#F0C45E" stroke-width="1.66667" stroke-linecap="round"/>
</svg>
