<svg width="40" height="40" viewBox="0 0 40 40" fill="none" xmlns="http://www.w3.org/2000/svg">
<path d="M17.5007 25.9287L16.1436 21.1787" stroke="#080807" stroke-width="1.66667" stroke-linecap="round"/>
<path d="M14.7856 11L12.0713 15.0714M24.2855 11L26.9998 15.0714" stroke="#080807" stroke-width="1.66667" stroke-linecap="round"/>
<path d="M21.5713 25.9287L22.9284 21.1787" stroke="#080807" stroke-width="1.66667" stroke-linecap="round"/>
<path d="M9.35645 17.7852V17.7852C10.1494 17.7852 10.836 18.3359 11.008 19.11L12.2677 24.7789C12.8239 27.2816 13.102 28.533 14.016 29.2662C14.93 29.9994 16.2119 29.9994 18.7757 29.9994H20.2942C22.858 29.9994 24.1399 29.9994 25.0539 29.2662C25.9679 28.533 26.246 27.2816 26.8021 24.7789L28.0619 19.11C28.2339 18.3359 28.9205 17.7852 29.7134 17.7852V17.7852" stroke="#080807" stroke-width="1.66667" stroke-linecap="round"/>
<path d="M29.7141 17.7856H9.35713C8.60761 17.7856 8 17.1779 8 16.4284C8 15.6789 8.60761 15.0713 9.35713 15.0713H29.7141C30.4637 15.0713 31.0713 15.6789 31.0713 16.4284C31.0713 17.1779 30.4637 17.7856 29.7141 17.7856Z" stroke="#080807" stroke-width="1.66667" stroke-linecap="round"/>
</svg>
