<svg width="36" height="36" viewBox="0 0 36 36" fill="none" xmlns="http://www.w3.org/2000/svg">
<g clip-path="url(#clip0_44_26832)">
<path d="M16.3333 18.833C16.6911 19.3114 17.1477 19.7073 17.672 19.9938C18.1964 20.2802 18.7762 20.4506 19.3721 20.4933C19.9681 20.5359 20.5662 20.45 21.126 20.2411C21.6858 20.0323 22.1942 19.7055 22.6166 19.283L25.1166 16.783C25.8756 15.9971 26.2956 14.9446 26.2861 13.8521C26.2766 12.7597 25.8384 11.7146 25.0658 10.9421C24.2933 10.1695 23.2482 9.73133 22.1558 9.72184C21.0633 9.71234 20.0108 10.1323 19.2249 10.8913L17.7916 12.3163M19.6666 17.1663C19.3087 16.6879 18.8521 16.292 18.3278 16.0055C17.8035 15.7191 17.2237 15.5487 16.6277 15.506C16.0318 15.4634 15.4336 15.5493 14.8738 15.7582C14.314 15.967 13.8057 16.2938 13.3833 16.7163L10.8833 19.2163C10.1243 20.0022 9.70429 21.0547 9.71378 22.1472C9.72327 23.2396 10.1615 24.2847 10.934 25.0572C11.7065 25.8298 12.7516 26.268 13.8441 26.2775C14.9366 26.2869 15.9891 25.867 16.7749 25.108L18.1999 23.683" stroke="#333333" stroke-width="2" stroke-linecap="round" stroke-linejoin="round"/>
</g>
<defs>
<clipPath id="clip0_44_26832">
<rect width="20" height="20" fill="white" transform="translate(8 8)"/>
</clipPath>
</defs>
</svg>
