<svg width="36" height="36" viewBox="0 0 36 36" fill="none" xmlns="http://www.w3.org/2000/svg">
<path d="M8 28L9.40583 22.8641C8.53833 21.3608 8.0825 19.6566 8.08333 17.9091C8.08583 12.4458 12.5317 8 17.9941 8C20.645 8.00083 23.1333 9.03333 25.005 10.9067C26.8758 12.78 27.9058 15.27 27.905 17.9183C27.9025 23.3825 23.4566 27.8283 17.9941 27.8283C16.3358 27.8275 14.7017 27.4116 13.2542 26.6216L8 28ZM13.4975 24.8275C14.8942 25.6566 16.2275 26.1533 17.9908 26.1541C22.5308 26.1541 26.2291 22.4591 26.2316 17.9166C26.2333 13.365 22.5525 9.675 17.9975 9.67333C13.4542 9.67333 9.75833 13.3683 9.75666 17.91C9.75583 19.7641 10.2992 21.1525 11.2117 22.605L10.3792 25.645L13.4975 24.8275ZM22.9866 20.2741C22.925 20.1708 22.76 20.1091 22.5116 19.985C22.2641 19.8608 21.0466 19.2616 20.8191 19.1791C20.5925 19.0966 20.4275 19.055 20.2616 19.3033C20.0966 19.5508 19.6216 20.1091 19.4775 20.2741C19.3333 20.4391 19.1883 20.46 18.9408 20.3358C18.6933 20.2116 17.895 19.9508 16.9491 19.1066C16.2133 18.45 15.7158 17.6391 15.5716 17.3908C15.4275 17.1433 15.5566 17.0091 15.68 16.8858C15.7916 16.775 15.9275 16.5966 16.0516 16.4516C16.1775 16.3083 16.2183 16.205 16.3016 16.0391C16.3841 15.8741 16.3433 15.7291 16.2808 15.605C16.2183 15.4816 15.7233 14.2625 15.5175 13.7667C15.3158 13.2842 15.1117 13.3492 14.96 13.3417L14.485 13.3333C14.32 13.3333 14.0517 13.395 13.825 13.6433C13.5983 13.8917 12.9583 14.49 12.9583 15.7091C12.9583 16.9283 13.8458 18.1058 13.9692 18.2708C14.0933 18.4358 15.715 20.9375 18.1991 22.01C18.79 22.265 19.2516 22.4175 19.6108 22.5316C20.2041 22.72 20.7441 22.6933 21.1708 22.63C21.6466 22.5591 22.6358 22.0308 22.8425 21.4525C23.0491 20.8733 23.0491 20.3775 22.9866 20.2741Z" fill="#333333"/>
</svg>
