<svg width="36" height="36" viewBox="0 0 36 36" fill="none" xmlns="http://www.w3.org/2000/svg">
<g clip-path="url(#clip0_44_26830)">
<path d="M18 8C12.4766 8 8 12.4766 8 18C8 22.2383 10.6367 25.8555 14.3555 27.3125C14.2695 26.5195 14.1875 25.3086 14.3906 24.4453C14.5742 23.6641 15.5625 19.4766 15.5625 19.4766C15.5625 19.4766 15.2617 18.8789 15.2617 17.9922C15.2617 16.6016 16.0664 15.5625 17.0703 15.5625C17.9219 15.5625 18.3359 16.2031 18.3359 16.9727C18.3359 17.832 17.7891 19.1133 17.5078 20.3008C17.2734 21.2969 18.0078 22.1094 18.9883 22.1094C20.7656 22.1094 22.1328 20.2344 22.1328 17.5312C22.1328 15.1367 20.4141 13.4609 17.957 13.4609C15.1133 13.4609 13.4414 15.5937 13.4414 17.8008C13.4414 18.6602 13.7734 19.582 14.1875 20.082C14.2695 20.1797 14.2812 20.2695 14.2578 20.3672C14.1836 20.6836 14.0117 21.3633 13.9805 21.5C13.9375 21.6836 13.8359 21.7227 13.6445 21.6328C12.3945 21.0508 11.6133 19.2266 11.6133 17.7578C11.6133 14.6016 13.9063 11.707 18.2188 11.707C21.6875 11.707 24.3828 14.1797 24.3828 17.4844C24.3828 20.9297 22.2109 23.7031 19.1953 23.7031C18.1836 23.7031 17.2305 23.1758 16.9023 22.5547C16.9023 22.5547 16.4023 24.4648 16.2812 24.9336C16.0547 25.8008 15.4453 26.8906 15.0391 27.5547C15.9766 27.8438 16.9688 28 18 28C23.5234 28 28 23.5234 28 18C28 12.4766 23.5234 8 18 8Z" fill="#333333"/>
</g>
<defs>
<clipPath id="clip0_44_26830">
<rect width="20" height="20" fill="white" transform="translate(8 8)"/>
</clipPath>
</defs>
</svg>
