<svg width="153" height="98" viewBox="0 0 153 98" fill="none" xmlns="http://www.w3.org/2000/svg">
<g clip-path="url(#clip0_699_30864)">
<path fill-rule="evenodd" clip-rule="evenodd" d="M118.189 26.939C114.216 26.939 110.403 27.6277 106.859 28.8821C106.859 28.8821 104.517 20.4716 112.384 4.57927L101.709 0.158642L101.321 0.0142258C99.6738 -0.599221 88.5413 26.3518 87.7995 28.5813C83.1309 42.5998 78.7624 62.402 85.7133 76.2298C91.8534 88.4413 104.824 94.9387 118.189 94.9387C136.959 94.9387 152.174 79.7171 152.174 60.9388C152.174 42.1606 136.959 26.939 118.189 26.939ZM36.2756 26.939C32.302 26.939 28.4894 27.6277 24.9453 28.882C24.9453 28.882 22.6036 20.4716 30.4708 4.57926L19.7955 0.158635L19.4078 0.0142186C17.7604 -0.599228 6.62816 26.3518 5.88617 28.5813C1.21594 42.5998 -3.1513 62.402 3.79978 76.2298C9.93966 88.4413 22.9102 94.9387 36.2756 94.9387C55.0448 94.9387 70.2603 79.7171 70.2603 60.9388C70.2603 42.1606 55.0448 26.939 36.2756 26.939Z" fill="#EDEA41"/>
</g>
<defs>
<clipPath id="clip0_699_30864">
<rect width="152" height="98" fill="white" transform="translate(0.173828)"/>
</clipPath>
</defs>
</svg>
