<svg width="172" height="170" viewBox="0 0 172 170" fill="none" xmlns="http://www.w3.org/2000/svg">
<path d="M169 137.19C129.671 176.937 65.9198 176.937 26.6136 137.19C-4.86744 105.42 -4.86744 53.8683 26.5911 22.0756C51.7579 -3.35853 92.5524 -3.35853 117.719 22.0756C137.857 42.4275 137.857 75.4052 117.719 95.7571C101.618 112.029 75.504 112.029 59.4026 95.7571C46.5261 82.7437 46.5261 61.617 59.4026 48.6037C69.7084 38.1884 86.4186 38.1884 96.7244 48.6037C104.978 56.945 104.978 70.4597 96.7244 78.7782C90.117 85.4558 79.4278 85.4558 72.843 78.7782C67.566 73.4452 67.566 64.8077 72.843 59.4519" stroke="#080807" stroke-width="5" stroke-miterlimit="10" stroke-linecap="round" stroke-linejoin="round"/>
</svg>
