<svg width="15" height="16" viewBox="0 0 15 16" fill="none" xmlns="http://www.w3.org/2000/svg">
<path d="M12 6.90261C11.8011 6.90261 11.6103 6.98506 11.4697 7.13183C11.329 7.2786 11.25 7.47766 11.25 7.68522V13.3043C11.25 13.5119 11.171 13.711 11.0303 13.8577C10.8897 14.0045 10.6989 14.087 10.5 14.087H2.25C2.05109 14.087 1.86032 14.0045 1.71967 13.8577C1.57902 13.711 1.5 13.5119 1.5 13.3043V4.69565C1.5 4.48809 1.57902 4.28903 1.71967 4.14226C1.86032 3.9955 2.05109 3.91304 2.25 3.91304H7.635C7.83391 3.91304 8.02468 3.83059 8.16533 3.68382C8.30598 3.53706 8.385 3.338 8.385 3.13043C8.385 2.92287 8.30598 2.72381 8.16533 2.57705C8.02468 2.43028 7.83391 2.34783 7.635 2.34783H2.25C1.65326 2.34783 1.08097 2.59519 0.65901 3.03549C0.237053 3.47579 0 4.07297 0 4.69565V13.3043C0 13.927 0.237053 14.5242 0.65901 14.9645C1.08097 15.4048 1.65326 15.6522 2.25 15.6522H10.5C11.0967 15.6522 11.669 15.4048 12.091 14.9645C12.5129 14.5242 12.75 13.927 12.75 13.3043V7.68522C12.75 7.47766 12.671 7.2786 12.5303 7.13183C12.3897 6.98506 12.1989 6.90261 12 6.90261ZM14.94 0.485217C14.8639 0.293987 14.7183 0.142024 14.535 0.0626086C14.4448 0.022507 14.348 0.00123651 14.25 0H9.75C9.55109 0 9.36032 0.0824532 9.21967 0.229221C9.07902 0.375988 9 0.575048 9 0.782609C9 0.99017 9.07902 1.18923 9.21967 1.336C9.36032 1.48276 9.55109 1.56522 9.75 1.56522H12.4425L4.7175 9.61826C4.6472 9.69102 4.59141 9.77757 4.55333 9.87294C4.51526 9.96831 4.49565 10.0706 4.49565 10.1739C4.49565 10.2772 4.51526 10.3795 4.55333 10.4749C4.59141 10.5703 4.6472 10.6568 4.7175 10.7296C4.78722 10.8029 4.87017 10.8611 4.96157 10.9009C5.05296 10.9406 5.15099 10.9611 5.25 10.9611C5.34901 10.9611 5.44704 10.9406 5.53843 10.9009C5.62983 10.8611 5.71278 10.8029 5.7825 10.7296L13.5 2.6687V5.47826C13.5 5.68582 13.579 5.88488 13.7197 6.03165C13.8603 6.17842 14.0511 6.26087 14.25 6.26087C14.4489 6.26087 14.6397 6.17842 14.7803 6.03165C14.921 5.88488 15 5.68582 15 5.47826V0.782609C14.9988 0.68034 14.9784 0.579304 14.94 0.485217Z" fill="#BDBDBD"/>
</svg>
