<svg width="220" height="48" viewBox="0 0 220 48" fill="none" xmlns="http://www.w3.org/2000/svg">
<g clip-path="url(#clip0_717_21859)">
<path d="M9.91713 6.26292C11.8661 5.1159 14.0978 4.5422 16.3567 4.60734C19.1503 4.60734 21.513 5.28535 23.4449 6.64123C24.9609 7.69568 26.0328 9.27638 26.4531 11.0776C26.5626 11.5292 26.8203 11.9309 27.1849 12.2178C27.5495 12.5047 27.9997 12.6603 28.4632 12.6596H32.143C31.8793 8.62577 30.3123 5.50661 27.4421 3.30215C24.5719 1.0977 20.8491 -0.00306814 16.2739 6.42275e-06C12.1342 6.42275e-06 8.9144 0.821121 6.09477 2.51828C3.27514 4.21543 1.61465 6.6966 1.53185 9.89722C1.47021 10.7239 1.58024 11.5543 1.85496 12.3362C2.12969 13.1181 2.56315 13.8343 3.12797 14.4397C4.2411 15.5834 5.75901 16.2477 7.66789 16.8242C10.1093 17.4788 12.5846 17.9992 15.0826 18.383C17.9851 18.8903 20.1193 19.3468 21.7154 19.7665C23.0676 20.0421 24.3314 20.6471 25.3952 21.5281C25.869 21.991 26.235 22.553 26.4672 23.174C26.6994 23.7951 26.7919 24.4597 26.7383 25.1208C26.6831 27.273 25.6466 28.8672 23.6289 29.9033C21.5658 30.9456 19.2831 31.4755 16.9731 31.4483C14.2814 31.5265 11.6262 30.8095 9.33759 29.3867C7.69432 28.3487 6.49308 26.7368 5.96599 24.8625C5.83833 24.4196 5.57054 24.0304 5.20301 23.7534C4.83548 23.4764 4.38811 23.3266 3.92832 23.3267H0.0185547C0.325203 27.4128 2.05164 30.5566 5.19784 32.758C8.34405 34.9594 12.2967 36.0602 17.0559 36.0602C21.0393 36.0602 24.2545 35.3313 27.2029 33.7033C30.1513 32.0754 31.913 29.6127 31.9958 26.4951C32.0479 24.5212 31.5052 22.9503 30.3675 21.7819C29.2314 20.6105 27.6813 19.8772 25.731 19.2776C23.2361 18.5513 20.6982 17.983 18.1323 17.5759C14.2455 16.9072 11.4948 16.1922 9.66415 15.3898C8.83504 15.0678 8.12939 14.4902 7.64905 13.74C7.16872 12.9899 6.93853 12.106 6.99172 11.2161C7.00179 10.2033 7.27958 9.21129 7.79672 8.34117C8.31387 7.47105 9.05189 6.75382 9.93555 6.26292" fill="#080807"/>
<path d="M58.4758 -0.00488281C51.2451 -0.00488281 47.0087 4.21496 45.2195 10.381V2.92368C45.2195 2.32312 44.9815 1.74703 44.558 1.32237C44.1344 0.897712 43.56 0.659195 42.961 0.659195L39.8838 0.659195V45.0529C39.8838 45.3506 39.9424 45.6452 40.0561 45.9203C40.1699 46.1953 40.3367 46.4452 40.5469 46.6555C40.7571 46.8658 41.0066 47.0327 41.2812 47.1462C41.5557 47.2597 41.8499 47.3177 42.1468 47.3171H45.2195V25.7475C47.0087 31.7983 51.2451 36.0505 58.4758 36.0505C67.7857 36.0505 74.5335 28.3532 74.5335 18.0227C74.5335 7.6922 67.7903 -0.00488281 58.4758 -0.00488281ZM56.636 31.9136C49.5018 31.9136 45.2287 27.2372 45.2287 18.0227C45.2287 8.99274 49.5018 4.13203 56.636 4.13203C63.2412 4.13203 68.6228 9.51388 68.6228 18.0227C68.6228 26.5316 63.2412 31.9136 56.636 31.9136Z" fill="#080807"/>
<path d="M99.1654 -0.00488281C93.8528 -0.00488281 88.7379 4.45471 87.1694 10.5469V2.92818C87.1694 2.32762 86.9314 1.75176 86.5079 1.3271C86.0843 0.902441 85.5099 0.663924 84.9109 0.663924L81.8291 0.663924V33.1172C81.8291 33.415 81.8877 33.7099 82.0015 33.9849C82.1152 34.2599 82.282 34.5098 82.4922 34.7201C82.7024 34.9305 82.9519 35.0971 83.2265 35.2106C83.501 35.3241 83.7952 35.3823 84.0922 35.3817H87.1648V16.6901C87.2706 9.6939 91.6679 3.9105 97.8453 4.19644C102.252 4.39475 104.179 7.95516 104.644 12.6869C104.695 13.2346 104.947 13.7437 105.352 14.1153C105.757 14.4868 106.285 14.6943 106.833 14.6976H109.929C110.453 3.44011 105.573 -0.000379066 99.1608 -0.000379066" fill="#080807"/>
<path d="M139.399 4.14615C138.176 2.63541 136.541 1.5138 134.693 0.917866L134.155 0.74267C129.896 -0.580927 125.195 -0.0690134 121.087 1.66504C119.224 2.45366 117.408 3.50974 116.156 5.09622C115.379 6.07393 114.896 7.48501 115.577 8.5319C116.552 10.0492 118.797 9.27918 120.177 8.69809C122.072 7.89102 123.778 7.10241 125.876 7.10241C127.633 7.10241 129.638 8.21848 129.583 10.2154C129.528 12.2123 127.674 13.3377 126.198 14.2877C124.013 15.6989 121.892 16.9026 119.671 18.1708C116.856 19.7711 114.1 21.7496 112.532 24.5905C110.963 27.4314 110.899 31.3191 113.134 33.6711C114.767 35.396 117.274 35.9771 119.648 36.0417C126.087 36.1847 131.455 32.5828 136.142 28.4921V33.1039C136.142 33.7045 136.38 34.2803 136.804 34.705C137.227 35.1296 137.802 35.3684 138.401 35.3684H141.473V15.4636C141.528 13.4634 141.47 11.4618 141.298 9.46823C141.151 7.54807 140.49 5.70326 139.385 4.12769M136.165 26.8502C135.245 27.6019 134.049 28.492 132.191 29.811C128.166 32.6657 122.384 34.1322 119.698 31.1576C117.141 28.3213 118.318 24.3414 120.682 21.8049C122.67 19.6788 125.066 17.8895 127.173 15.8926C129.077 14.0801 131.395 11.9355 130.917 9.2883C130.595 7.50814 129.44 6.6965 128.24 6.22148C126.86 5.67728 124.634 5.76037 122.798 5.94945C122.145 6.00941 120.958 6.14758 120.742 5.41891C120.466 4.53344 121.625 3.62038 122.214 3.19609C124.468 1.57272 127.734 0.816369 130.397 1.68801C134.827 3.13151 136.165 7.95556 136.165 12.2446V26.8502Z" fill="#080807"/>
<path d="M219.821 9.48181C219.673 7.56165 219.012 5.71707 217.908 4.14149C216.685 2.62976 215.05 1.50793 213.202 0.913208L212.664 0.737787C208.409 -0.58581 203.704 -0.0738962 199.596 1.66015C197.756 2.44878 195.916 3.50486 194.665 5.09133C193.888 6.06904 193.405 7.48036 194.086 8.52724C195.061 10.0445 197.328 9.2743 198.685 8.69321C200.58 7.88613 202.287 7.09753 204.384 7.09753C206.141 7.09753 208.147 8.21359 208.092 10.2105C208.037 12.2074 206.187 13.3328 204.706 14.2828C202.521 15.694 200.401 16.8977 198.179 18.1659C195.364 19.7662 192.609 21.7447 191.041 24.5856C189.472 27.4265 189.408 31.3142 191.643 33.6663C193.276 35.3911 195.783 35.9722 198.156 36.0368C204.596 36.1798 209.964 32.5779 214.651 28.4872V33.099C214.651 33.6996 214.889 34.2757 215.312 34.7003C215.736 35.125 216.31 35.3635 216.909 35.3635H219.982V15.4587C220.037 13.4586 219.979 11.4569 219.807 9.46335M214.651 26.8456C213.731 27.5973 212.535 28.4873 210.677 29.8063C206.652 32.661 200.87 34.1276 198.184 31.1529C195.627 28.3167 196.804 24.3365 199.168 21.8C201.16 19.674 203.552 17.8846 205.658 15.8877C207.563 14.0753 209.881 11.9308 209.403 9.28365C209.081 7.50348 207.926 6.69184 206.726 6.21682C205.346 5.67262 203.119 5.75548 201.284 5.94457C200.631 6.00452 199.444 6.14292 199.228 5.41425C198.957 4.52878 200.111 3.61572 200.7 3.19143C202.954 1.56806 206.22 0.811712 208.883 1.68335C213.312 3.12685 214.651 7.95067 214.651 12.2397V26.8456Z" fill="#080807"/>
<path d="M178.115 2.93344V10.4369C176.33 4.24783 172.094 0.00488281 164.845 0.00488281C155.53 0.00488281 148.787 7.70658 148.787 18.0325C148.787 28.3584 155.535 36.0603 164.845 36.0603C172.094 36.0603 176.344 31.7849 178.115 25.7111V31.6282C178.115 33.7266 177.949 45.6943 169.182 46.4322C158.516 47.3269 153.764 37.2777 153.764 37.2777C153.764 37.2777 152.021 39.3946 151.395 40.8104C151.137 41.4234 151.087 42.1047 151.253 42.749C151.419 43.3934 151.793 43.9649 152.315 44.3754C154.716 46.2431 161.331 48.8995 170.093 47.7005C183.014 45.9341 183.464 33.7865 183.464 27.3622V0.66896L180.387 0.66896C179.788 0.66896 179.214 0.907477 178.79 1.33214C178.367 1.7568 178.129 2.33289 178.129 2.93344M166.689 31.9234C160.084 31.9234 154.702 26.5413 154.702 18.0325C154.702 9.52364 160.084 4.1418 166.689 4.1418C173.823 4.1418 178.097 9.00251 178.097 18.0325C178.097 27.2562 173.823 31.9234 166.689 31.9234Z" fill="#080807"/>
</g>
<defs>
<clipPath id="clip0_717_21859">
<rect width="220" height="48" fill="white"/>
</clipPath>
</defs>
</svg>
