<svg width="109" height="24" viewBox="0 0 109 24" fill="none" xmlns="http://www.w3.org/2000/svg">
<g clip-path="url(#clip0_236_20142)">
<path d="M4.91357 3.13146C5.8792 2.55795 6.98488 2.2711 8.1041 2.30367C9.48819 2.30367 10.6588 2.64268 11.616 3.32062C12.3671 3.84784 12.8982 4.63819 13.1064 5.53882C13.1606 5.76461 13.2883 5.96543 13.469 6.10889C13.6496 6.25235 13.8727 6.33015 14.1023 6.32979H15.9255C15.7948 4.31288 15.0185 2.75331 13.5964 1.65108C12.1743 0.548848 10.3299 -0.00153407 8.06309 3.21138e-06C6.01203 3.21138e-06 4.41676 0.41056 3.01976 1.25914C1.62277 2.10772 0.800069 3.3483 0.759048 4.94861C0.728505 5.36195 0.78302 5.77716 0.919133 6.16811C1.05525 6.55906 1.27001 6.91714 1.54985 7.21985C2.10136 7.79172 2.85341 8.12386 3.79918 8.4121C5.00879 8.73942 6.23517 8.99958 7.47285 9.19148C8.91086 9.44513 9.96829 9.67341 10.7591 9.88325C11.429 10.0211 12.0552 10.3235 12.5823 10.7641C12.817 10.9955 12.9983 11.2765 13.1134 11.587C13.2284 11.8975 13.2743 12.2299 13.2477 12.5604C13.2204 13.6365 12.7068 14.4336 11.7071 14.9517C10.685 15.4728 9.554 15.7377 8.40949 15.7242C7.07587 15.7632 5.76033 15.4048 4.62644 14.6934C3.81227 14.1743 3.21711 13.3684 2.95596 12.4312C2.89271 12.2098 2.76004 12.0152 2.57794 11.8767C2.39584 11.7382 2.17419 11.6633 1.94639 11.6634H0.00927734C0.161207 13.7064 1.01658 15.2783 2.57538 16.379C4.13418 17.4797 6.09256 18.0301 8.45051 18.0301C10.4241 18.0301 12.0171 17.6657 13.4779 16.8517C14.9387 16.0377 15.8115 14.8064 15.8525 13.2476C15.8784 12.2606 15.6095 11.4751 15.0458 10.891C14.4829 10.3053 13.7149 9.93858 12.7486 9.63881C11.5125 9.27565 10.2551 8.99148 8.98379 8.78794C7.05808 8.45358 5.69526 8.09611 4.78823 7.69488C4.37745 7.53391 4.02783 7.24511 3.78984 6.87002C3.55186 6.49493 3.43781 6.053 3.46416 5.60807C3.46915 5.10165 3.60678 4.60565 3.86301 4.17059C4.11923 3.73552 4.48488 3.37691 4.9227 3.13146" fill="#080807"/>
<path d="M28.9723 -0.00244141C25.3897 -0.00244141 23.2908 2.10748 22.4043 5.19049V1.46184C22.4043 1.16156 22.2864 0.873516 22.0766 0.661186C21.8667 0.448856 21.5821 0.329597 21.2854 0.329597L19.7607 0.329597V22.5264C19.7607 22.6753 19.7898 22.8226 19.8461 22.9601C19.9025 23.0977 19.9851 23.2226 20.0893 23.3278C20.1934 23.4329 20.3171 23.5163 20.4531 23.5731C20.5891 23.6299 20.7348 23.6589 20.882 23.6586H22.4043V12.8738C23.2908 15.8991 25.3897 18.0253 28.9723 18.0253C33.5849 18.0253 36.9281 14.1766 36.9281 9.01136C36.9281 3.8461 33.5871 -0.00244141 28.9723 -0.00244141ZM28.0607 15.9568C24.526 15.9568 22.4089 13.6186 22.4089 9.01136C22.4089 4.49637 24.526 2.06602 28.0607 2.06602C31.3333 2.06602 33.9996 4.75694 33.9996 9.01136C33.9996 13.2658 31.3333 15.9568 28.0607 15.9568Z" fill="#080807"/>
<path d="M49.1319 -0.00244141C46.4997 -0.00244141 43.9655 2.22735 43.1883 5.27347V1.46409C43.1883 1.16381 43.0704 0.87588 42.8606 0.66355C42.6508 0.45122 42.3661 0.331962 42.0694 0.331962L40.5425 0.331962V16.5586C40.5425 16.7075 40.5715 16.8549 40.6279 16.9924C40.6842 17.13 40.7669 17.2549 40.871 17.3601C40.9752 17.4652 41.0988 17.5485 41.2348 17.6053C41.3708 17.6621 41.5166 17.6912 41.6637 17.6909H43.1861V8.34503C43.2385 4.84695 45.4172 1.95525 48.4778 2.09822C50.661 2.19737 51.6159 3.97758 51.8461 6.34345C51.8715 6.6173 51.9966 6.87185 52.197 7.05763C52.3975 7.24342 52.659 7.34715 52.9309 7.3488H54.4646C54.7244 1.72005 52.3064 -0.000189533 49.1296 -0.000189533" fill="#080807"/>
<path d="M69.0658 2.07308C68.4597 1.31771 67.6497 0.7569 66.7344 0.458933L66.4678 0.371335C64.3574 -0.290464 62.0284 -0.0345067 59.9932 0.832519C59.0703 1.22683 58.1701 1.75487 57.5502 2.54811C57.1651 3.03696 56.9258 3.74251 57.2631 4.26595C57.7462 5.0246 58.8583 4.63959 59.542 4.34904C60.4809 3.94551 61.3264 3.55121 62.3656 3.55121C63.2362 3.55121 64.2298 4.10924 64.2025 5.1077C64.1751 6.10616 63.2567 6.66883 62.5252 7.14384C61.4427 7.84946 60.3921 8.45128 59.2913 9.08541C57.8966 9.88556 56.5315 10.8748 55.7544 12.2952C54.9773 13.7157 54.9454 15.6596 56.0529 16.8356C56.862 17.698 58.104 17.9886 59.2799 18.0208C62.4705 18.0923 65.13 16.2914 67.4523 14.246V16.5519C67.4523 16.8522 67.5702 17.1402 67.78 17.3525C67.9899 17.5648 68.2745 17.6842 68.5712 17.6842H70.0936V7.73181C70.1209 6.73172 70.092 5.73088 70.007 4.73411C69.9337 3.77403 69.6062 2.85163 69.0589 2.06384M67.4637 13.4251C67.0079 13.801 66.4153 14.246 65.4946 14.9055C63.5006 16.3329 60.6359 17.0661 59.305 15.5788C58.0379 14.1607 58.6213 12.1707 59.7927 10.9024C60.7772 9.83942 61.9646 8.94476 63.0083 7.9463C63.9518 7.04007 65.1004 5.96775 64.8634 4.64415C64.7038 3.75407 64.1318 3.34825 63.537 3.11074C62.8533 2.83864 61.7503 2.88018 60.841 2.97473C60.5174 3.0047 59.9294 3.07379 59.8223 2.70946C59.6856 2.26672 60.2599 1.81019 60.5516 1.59804C61.6683 0.78636 63.2863 0.408185 64.6059 0.844003C66.8005 1.56576 67.4637 3.97778 67.4637 6.12228V13.4251Z" fill="#080807"/>
<path d="M108.911 4.74091C108.838 3.78083 108.511 2.85853 107.963 2.07075C107.358 1.31488 106.547 0.753967 105.632 0.456604L105.365 0.368894C103.257 -0.292905 100.926 -0.0369481 98.8907 0.830077C97.9791 1.22439 97.0676 1.75243 96.4477 2.54567C96.0625 3.03452 95.8232 3.74018 96.1605 4.26362C96.6437 5.02227 97.7672 4.63715 98.4395 4.3466C99.3784 3.94307 100.224 3.54876 101.263 3.54876C102.134 3.54876 103.127 4.1068 103.1 5.10526C103.073 6.10372 102.156 6.66638 101.423 7.1414C100.34 7.84701 99.2895 8.44884 98.1888 9.08297C96.7941 9.88312 95.429 10.8723 94.6519 12.2928C93.8747 13.7132 93.8428 15.6571 94.9504 16.8331C95.7594 17.6955 97.0015 17.9861 98.1774 18.0184C101.368 18.0899 104.027 16.2889 106.35 14.2436V16.5495C106.35 16.8498 106.468 17.1378 106.677 17.3502C106.887 17.5625 107.172 17.6817 107.469 17.6817H108.991V7.72937C109.018 6.72928 108.989 5.72844 108.904 4.73167M106.35 13.4228C105.894 13.7986 105.301 14.2437 104.381 14.9032C102.387 16.3305 99.522 17.0638 98.1911 15.5765C96.924 14.1583 97.5074 12.1683 98.6788 10.9C99.6656 9.83698 100.851 8.94232 101.894 7.94386C102.838 7.03763 103.986 5.96542 103.749 4.64182C103.59 3.75174 103.018 3.34592 102.423 3.10841C101.739 2.83631 100.636 2.87774 99.7271 2.97228C99.4035 3.00226 98.8155 3.07146 98.7084 2.70713C98.5739 2.26439 99.146 1.80786 99.4377 1.59571C100.554 0.784031 102.172 0.405856 103.492 0.841674C105.687 1.56343 106.35 3.97534 106.35 6.11984V13.4228Z" fill="#080807"/>
<path d="M88.2479 1.46672V5.21846C87.3636 2.12391 85.2647 0.00244141 81.6731 0.00244141C77.0582 0.00244141 73.7173 3.85329 73.7173 9.01624C73.7173 14.1792 77.0605 18.0302 81.6731 18.0302C85.2647 18.0302 87.3705 15.8925 88.2479 12.8556V15.8141C88.2479 16.8633 88.1658 22.8472 83.8222 23.2161C78.5373 23.6635 76.1831 18.6388 76.1831 18.6388C76.1831 18.6388 75.3194 19.6973 75.0094 20.4052C74.8814 20.7117 74.8567 21.0524 74.939 21.3745C75.0214 21.6967 75.2063 21.9825 75.4652 22.1877C76.6549 23.1216 79.932 24.4498 84.2734 23.8502C90.675 22.9671 90.8983 16.8933 90.8983 13.6811V0.33448L89.3737 0.33448C89.0769 0.33448 88.7923 0.453739 88.5825 0.666069C88.3726 0.878398 88.2547 1.16644 88.2547 1.46672M82.587 15.9617C79.3144 15.9617 76.648 13.2707 76.648 9.01624C76.648 4.76182 79.3144 2.0709 82.587 2.0709C86.1216 2.0709 88.2388 4.50125 88.2388 9.01624C88.2388 13.6281 86.1216 15.9617 82.587 15.9617Z" fill="#080807"/>
</g>
<defs>
<clipPath id="clip0_236_20142">
<rect width="109" height="24" fill="white"/>
</clipPath>
</defs>
</svg>
