<svg width="200" height="44" viewBox="0 0 200 44" fill="none" xmlns="http://www.w3.org/2000/svg">
<g clip-path="url(#clip0_823_6472)">
<path d="M9.01531 5.74101C10.7871 4.68957 12.8159 4.16368 14.8695 4.22339C17.4091 4.22339 19.557 4.84491 21.3133 6.0878C22.6915 7.05438 23.6659 8.50335 24.048 10.1545C24.1475 10.5685 24.3818 10.9366 24.7133 11.1996C25.0447 11.4626 25.454 11.6053 25.8754 11.6046H29.2206C28.9809 7.90695 27.5564 5.04773 24.9471 3.02697C22.3378 1.00622 18.9535 -0.00281246 14.7942 5.88752e-06C11.0308 5.88752e-06 8.10373 0.752694 5.54043 2.30842C2.97713 3.86415 1.46759 6.13855 1.39233 9.07245C1.33628 9.83024 1.43631 10.5915 1.68606 11.3082C1.93581 12.0249 2.32987 12.6814 2.84334 13.2364C3.85528 14.2848 5.23519 14.8937 6.97054 15.4222C9.19001 16.0223 11.4403 16.4992 13.7112 16.851C16.3498 17.3161 18.29 17.7346 19.741 18.1193C20.9703 18.3719 22.1192 18.9265 23.0863 19.7341C23.517 20.1584 23.8498 20.6736 24.0608 21.2429C24.2719 21.8121 24.356 22.4214 24.3073 23.0274C24.2571 25.0002 23.3149 26.4616 21.4805 27.4114C19.605 28.3668 17.5299 28.8525 15.4298 28.8276C12.9828 28.8993 10.569 28.2421 8.48845 26.9378C6.99457 25.9863 5.90253 24.5087 5.42336 22.7906C5.3073 22.3846 5.06386 22.0279 4.72974 21.774C4.39562 21.5201 3.98892 21.3827 3.57093 21.3828H0.0166016C0.295372 25.1284 1.86486 28.0102 4.72505 30.0282C7.58524 32.0461 11.1786 33.0551 15.5051 33.0551C19.1263 33.0551 22.0492 32.3871 24.7296 30.8947C27.41 29.4024 29.0115 27.145 29.0868 24.2872C29.1342 22.4778 28.6408 21.0377 27.6065 19.9668C26.5737 18.893 25.1645 18.2207 23.3915 17.6712C21.1235 17.0054 18.8163 16.4844 16.4836 16.1112C12.9502 15.4982 10.4496 14.8429 8.78533 14.1073C8.03159 13.8122 7.39009 13.2827 6.95342 12.595C6.51675 11.9074 6.30749 11.0972 6.35584 10.2815C6.365 9.35302 6.61753 8.44368 7.08767 7.64607C7.5578 6.84846 8.22872 6.191 9.03205 5.74101" fill="#080807"/>
<path d="M53.1607 -0.00390625C46.5872 -0.00390625 42.736 3.86428 41.1094 9.51647V2.68061C41.1094 2.1301 40.8931 1.60201 40.5081 1.21274C40.123 0.823472 39.6008 0.604831 39.0563 0.604831L36.2588 0.604831V41.299C36.2588 41.572 36.312 41.842 36.4155 42.0942C36.5189 42.3463 36.6705 42.5753 36.8616 42.7681C37.0527 42.9609 37.2796 43.1138 37.5291 43.2179C37.7787 43.322 38.0461 43.3751 38.3161 43.3746H41.1094V23.6025C42.736 29.149 46.5872 33.0469 53.1607 33.0469C61.6241 33.0469 67.7585 25.991 67.7585 16.5214C67.7585 7.05175 61.6283 -0.00390625 53.1607 -0.00390625ZM51.488 29.2547C45.0024 29.2547 41.1178 24.968 41.1178 16.5214C41.1178 8.24391 45.0024 3.78827 51.488 3.78827C57.4928 3.78827 62.3852 8.72162 62.3852 16.5214C62.3852 24.3212 57.4928 29.2547 51.488 29.2547Z" fill="#080807"/>
<path d="M90.15 -0.00390625C85.3203 -0.00390625 80.6704 4.08405 79.2444 9.6686V2.68474C79.2444 2.13422 79.0281 1.60635 78.6431 1.21708C78.258 0.827807 77.7358 0.609166 77.1913 0.609166L74.3896 0.609166V30.358C74.3896 30.631 74.4429 30.9013 74.5463 31.1534C74.6498 31.4055 74.8014 31.6346 74.9925 31.8274C75.1836 32.0202 75.4104 32.1729 75.66 32.2769C75.9096 32.381 76.177 32.4344 76.447 32.4338H79.2403V15.2998C79.3364 8.88664 83.334 3.5852 88.9499 3.8473C92.9558 4.02909 94.7079 7.2928 95.1302 11.6302C95.1768 12.1323 95.4064 12.599 95.7742 12.9396C96.142 13.2802 96.6218 13.4703 97.1206 13.4734H99.9348C100.412 3.154 95.9749 0.000222185 90.1458 0.000222185" fill="#080807"/>
<path d="M126.726 3.80023C125.614 2.41539 124.128 1.38724 122.449 0.84097L121.959 0.680374C118.087 -0.532924 113.814 -0.0636692 110.08 1.52588C108.386 2.24878 106.734 3.21686 105.597 4.67112C104.89 5.56736 104.451 6.86085 105.07 7.8205C105.957 9.21135 107.997 8.50551 109.252 7.97284C110.974 7.23302 112.526 6.51014 114.433 6.51014C116.03 6.51014 117.853 7.53319 117.803 9.36371C117.753 11.1942 116.068 12.2258 114.725 13.0966C112.739 14.3903 110.811 15.4936 108.792 16.6562C106.233 18.1231 103.728 19.9367 102.302 22.5408C100.876 25.145 100.817 28.7088 102.85 30.8648C104.334 32.4459 106.613 32.9786 108.771 33.0378C114.625 33.1689 119.505 29.8671 123.766 26.1173V30.3448C123.766 30.8953 123.982 31.4232 124.367 31.8125C124.752 32.2018 125.274 32.4206 125.819 32.4206H128.612V14.1746C128.662 12.3411 128.609 10.5062 128.453 8.6788C128.319 6.91866 127.718 5.22758 126.714 3.7833M123.787 24.6123C122.95 25.3014 121.863 26.1173 120.174 27.3263C116.515 29.9432 111.259 31.2875 108.817 28.5607C106.492 25.9608 107.562 22.3125 109.712 19.9874C111.518 18.0385 113.697 16.3983 115.612 14.5678C117.343 12.9064 119.45 10.9405 119.016 8.51387C118.723 6.88205 117.673 6.13805 116.582 5.70261C115.327 5.20377 113.304 5.27993 111.635 5.45326C111.041 5.50821 109.963 5.63487 109.766 4.96693C109.515 4.15524 110.569 3.31827 111.104 2.92934C113.153 1.44125 116.122 0.747931 118.543 1.54693C122.57 2.87014 123.787 7.29218 123.787 11.2238V24.6123Z" fill="#080807"/>
<path d="M199.837 8.69182C199.703 6.93168 199.102 5.24081 198.098 3.79653C196.986 2.41078 195.5 1.38244 193.82 0.83727L193.331 0.676468C189.463 -0.53683 185.185 -0.0675754 181.451 1.52197C179.778 2.24488 178.105 3.21295 176.968 4.66722C176.261 5.56345 175.822 6.85716 176.441 7.8168C177.328 9.20765 179.389 8.5016 180.623 7.96893C182.346 7.22912 183.897 6.50623 185.804 6.50623C187.401 6.50623 189.224 7.52929 189.174 9.3598C189.124 11.1903 187.443 12.2219 186.096 13.0927C184.11 14.3864 182.182 15.4897 180.163 16.6523C177.604 18.1192 175.099 19.9328 173.673 22.5369C172.247 25.1411 172.189 28.7049 174.221 30.8609C175.705 32.442 177.984 32.9747 180.142 33.0339C185.996 33.165 190.876 29.8632 195.137 26.1134V30.3409C195.137 30.8914 195.353 31.4195 195.738 31.8088C196.123 32.1981 196.646 32.4167 197.19 32.4167H199.983V14.1707C200.033 12.3372 199.98 10.5023 199.824 8.6749M195.137 24.6086C194.301 25.2977 193.213 26.1136 191.524 27.3226C187.865 29.9395 182.609 31.2838 180.167 28.557C177.842 25.9571 178.912 22.3086 181.062 19.9835C182.872 18.0346 185.047 16.3944 186.962 14.5639C188.693 12.9025 190.801 10.9368 190.366 8.51017C190.073 6.87835 189.024 6.13435 187.932 5.69892C186.678 5.20007 184.654 5.27602 182.985 5.44935C182.392 5.50431 181.313 5.63118 181.116 4.96323C180.869 4.15154 181.919 3.31457 182.454 2.92564C184.503 1.43755 187.472 0.744232 189.893 1.54323C193.92 2.86645 195.137 7.28828 195.137 11.2199V24.6086Z" fill="#080807"/>
<path d="M161.922 2.68842V9.5666C160.3 3.89327 156.449 0.00390625 149.859 0.00390625C141.391 0.00390625 135.261 7.06379 135.261 16.5292C135.261 25.9946 141.395 33.0547 149.859 33.0547C156.449 33.0547 160.312 29.1356 161.922 23.568V28.9919C161.922 30.9154 161.772 41.8859 153.802 42.5623C144.105 43.3824 139.785 34.1706 139.785 34.1706C139.785 34.1706 138.2 36.1111 137.632 37.409C137.397 37.9709 137.351 38.5954 137.502 39.1861C137.654 39.7767 137.993 40.3006 138.468 40.6768C140.651 42.389 146.664 44.824 154.63 43.7249C166.376 42.1057 166.786 30.9704 166.786 25.0815V0.612644L163.988 0.612644C163.444 0.612644 162.921 0.831285 162.536 1.22056C162.151 1.60983 161.935 2.13791 161.935 2.68842M151.535 29.2625C145.531 29.2625 140.638 24.329 140.638 16.5292C140.638 8.72944 145.531 3.79608 151.535 3.79608C158.021 3.79608 161.906 8.25173 161.906 16.5292C161.906 24.9842 158.021 29.2625 151.535 29.2625Z" fill="#080807"/>
</g>
<defs>
<clipPath id="clip0_823_6472">
<rect width="200" height="44" fill="white"/>
</clipPath>
</defs>
</svg>
