<svg width="66" height="40" viewBox="0 0 66 40" fill="none" xmlns="http://www.w3.org/2000/svg">
<path d="M1 9.32644V33.9824C1 34.6556 1.45029 35.323 2.30171 35.9184C3.30781 37.787 7.2259 39.2381 11.315 39.2381C15.4042 39.2381 19.3227 37.787 20.3288 35.9188C21.1806 35.3234 21.6301 34.6563 21.6301 33.9828V9.32606C21.6316 9.30435 21.6621 8.38854 20.8358 7.17177C20.296 6.37711 19.7566 5.78054 19.4979 5.51006C19.5543 5.18701 19.5619 4.77101 19.5619 4.7653V4.09139C19.5623 2.17635 15.3135 1.14282 11.315 1.14282C7.3181 1.14282 3.06819 2.17635 3.06819 4.09139V4.7653C3.06819 4.77063 3.07543 5.18282 3.13219 5.50549C2.85752 5.78397 2.28305 6.40339 1.78819 7.18092C1.00724 8.40949 1.00038 9.28949 1 9.32644ZM11.315 6.33025C8.38667 6.33025 5.84571 5.80835 4.60152 5.04949C4.64381 3.99958 7.82324 3.04873 11.3154 3.04873C14.8069 3.04873 17.9874 3.99997 18.0282 5.05025C16.7844 5.80911 14.2438 6.33063 11.315 6.33025Z" fill="#080807"/>
<path d="M7.07623 5.39161C7.64804 5.65446 8.16766 5.82094 8.7608 5.85599C10.0229 5.92989 10.8218 5.30894 11.5837 5.06399C11.9825 4.93523 12.4515 4.82818 12.8953 4.71961C13.1886 4.64799 13.5616 4.57294 13.7029 4.44951C13.9448 4.23694 13.5501 3.93713 13.1856 3.76989C12.821 3.60265 12.1002 3.38932 11.4503 3.41408C11.072 3.42856 10.7646 3.5337 10.488 3.61332C10.0698 3.73332 9.64842 3.86246 9.18709 3.96227C8.30785 4.15313 6.38023 4.25561 6.2469 4.70018C6.1848 4.90894 6.5048 5.12837 7.07623 5.39161ZM10.8587 4.05637C11.1703 3.97332 11.6286 4.00075 11.8816 4.11656C12.1338 4.23237 12.0854 4.39351 11.773 4.47656C11.4614 4.55884 11.0031 4.53218 10.7509 4.41599C10.4979 4.30018 10.5463 4.13904 10.8587 4.05637ZM7.79052 4.54932C8.40461 4.38665 9.3048 4.43961 9.80233 4.6678C10.2983 4.89637 10.2031 5.21332 9.58899 5.37637C8.97528 5.5398 8.07318 5.48684 7.57642 5.25827C7.08004 5.03046 7.17566 4.71275 7.79052 4.54932Z" fill="#080807"/>
<path d="M22.6309 9.18362V33.8396C22.6309 34.5128 23.0812 35.1802 23.9326 35.7756C24.9387 37.6442 28.8568 39.0952 32.9459 39.0952C37.0351 39.0952 40.9535 37.6442 41.9596 35.776C42.8114 35.1806 43.261 34.5135 43.261 33.84V9.18324C43.2625 9.16152 43.293 8.24571 42.4667 7.02895C41.9269 6.23429 41.3874 5.63771 41.1288 5.36724C41.1852 5.04419 41.1928 4.62819 41.1928 4.62248V3.94857C41.1932 2.03352 36.9444 1 32.9459 1C28.949 1 24.6991 2.03352 24.6991 3.94857V4.62248C24.6991 4.62781 24.7063 5.04 24.7631 5.36267C24.4884 5.64114 23.9139 6.26057 23.4191 7.0381C22.6381 8.26667 22.6313 9.14667 22.6309 9.18362ZM32.9459 6.18743C30.0175 6.18743 27.4766 5.66552 26.2324 4.90667C26.2747 3.85676 29.4541 2.9059 32.9463 2.9059C36.4377 2.9059 39.6183 3.85714 39.6591 4.90743C38.4153 5.66629 35.8747 6.18781 32.9459 6.18743Z" fill="#080807"/>
<path d="M28.7061 5.24902C29.2779 5.51188 29.7975 5.67836 30.3907 5.71341C31.6528 5.78731 32.4516 5.16636 33.2135 4.92141C33.6124 4.79264 34.0813 4.6856 34.5251 4.57702C34.8185 4.50541 35.1914 4.43036 35.3328 4.30693C35.5747 4.09436 35.18 3.79455 34.8154 3.62731C34.4509 3.46007 33.7301 3.24674 33.0802 3.2715C32.7019 3.28598 32.3945 3.39112 32.1179 3.47074C31.6996 3.59074 31.2783 3.71988 30.817 3.81969C29.9377 4.01055 28.0101 4.11302 27.8768 4.5576C27.8147 4.76636 28.1347 4.98579 28.7061 5.24902ZM32.4886 3.91379C32.8002 3.83074 33.2585 3.85817 33.5114 3.97398C33.7636 4.08979 33.7152 4.25093 33.4029 4.33398C33.0912 4.41626 32.633 4.3896 32.3808 4.27341C32.1278 4.1576 32.1762 3.99645 32.4886 3.91379ZM29.4204 4.40674C30.0345 4.24407 30.9347 4.29702 31.4322 4.52521C31.9282 4.75379 31.833 5.07074 31.2189 5.23379C30.6051 5.39721 29.7031 5.34426 29.2063 5.11569C28.7099 4.88788 28.8055 4.57017 29.4204 4.40674Z" fill="#080807"/>
<path d="M44.2607 9.18362V33.8396C44.2607 34.5128 44.711 35.1802 45.5625 35.7756C46.5686 37.6442 50.4866 39.0952 54.5758 39.0952C58.6649 39.0952 62.5834 37.6442 63.5895 35.776C64.4413 35.1806 64.8908 34.5135 64.8908 33.84V9.18324C64.8924 9.16152 64.9228 8.24571 64.0966 7.02895C63.5567 6.23429 63.0173 5.63771 62.7586 5.36724C62.815 5.04419 62.8226 4.62819 62.8226 4.62248V3.94857C62.823 2.03352 58.5743 1 54.5758 1C50.5788 1 46.3289 2.03352 46.3289 3.94857V4.62248C46.3289 4.62781 46.3362 5.04 46.3929 5.36267C46.1183 5.64114 45.5438 6.26057 45.0489 7.0381C44.268 8.26667 44.2611 9.14667 44.2607 9.18362ZM54.5758 6.18743C51.6474 6.18743 49.1065 5.66552 47.8623 4.90667C47.9046 3.85676 51.084 2.9059 54.5762 2.9059C58.0676 2.9059 61.2482 3.85714 61.2889 4.90743C60.0451 5.66629 57.5046 6.18781 54.5758 6.18743Z" fill="#080807"/>
<path d="M50.337 5.24902C50.9088 5.51188 51.4284 5.67836 52.0215 5.71341C53.2836 5.78731 54.0825 5.16636 54.8444 4.92141C55.2433 4.79264 55.7122 4.6856 56.156 4.57702C56.4494 4.50541 56.8223 4.43036 56.9636 4.30693C57.2055 4.09436 56.8109 3.79455 56.4463 3.62731C56.0817 3.46007 55.361 3.24674 54.7111 3.2715C54.3328 3.28598 54.0254 3.39112 53.7488 3.47074C53.3305 3.59074 52.9092 3.71988 52.4478 3.81969C51.5686 4.01055 49.641 4.11302 49.5076 4.5576C49.4455 4.76636 49.7655 4.98579 50.337 5.24902ZM54.1194 3.91379C54.4311 3.83074 54.8894 3.85817 55.1423 3.97398C55.3945 4.08979 55.3461 4.25093 55.0337 4.33398C54.7221 4.41626 54.2638 4.3896 54.0116 4.27341C53.7587 4.1576 53.8071 3.99645 54.1194 3.91379ZM51.0513 4.40674C51.6654 4.24407 52.5655 4.29702 53.0631 4.52521C53.5591 4.75379 53.4638 5.07074 52.8497 5.23379C52.236 5.39721 51.3339 5.34426 50.8372 5.11569C50.3408 4.88788 50.4364 4.57017 51.0513 4.40674Z" fill="#080807"/>
<path d="M65 17H1V40H65V17Z" fill="#080807"/>
</svg>
