<svg width="173" height="172" viewBox="0 0 173 172" fill="none" xmlns="http://www.w3.org/2000/svg">
<path fill-rule="evenodd" clip-rule="evenodd" d="M86.0607 50.5085L86.0606 50.5086L86.0606 50.5086C84.6592 54.1519 83.2158 57.9047 81.5769 61.5462C77.3299 70.9826 69.6253 93.597 62.959 113.937C59.6318 124.089 56.5719 133.647 54.3437 140.667C53.2297 144.177 52.3236 147.052 51.6961 149.05C51.3824 150.049 51.1383 150.828 50.9727 151.358L50.7203 152.166L49.4569 151.773L48.194 151.379L48.4473 150.568C48.6132 150.037 48.8576 149.257 49.1717 148.257C49.7999 146.257 50.7067 143.379 51.8217 139.866C54.0515 132.841 57.1141 123.275 60.4446 113.113C67.0938 92.8251 74.846 70.0545 79.164 60.4602C80.7697 56.8925 82.176 53.2366 83.5715 49.6088C84.0213 48.4396 84.4699 47.2733 84.9237 46.1138C86.7731 41.3889 88.7026 36.7949 91.1023 32.7881C93.507 28.773 96.4174 25.2889 100.261 22.8256C104.119 20.3532 108.83 18.965 114.738 19.0088C127.137 19.1007 136.156 23.1393 143.582 26.5608C148.907 29.0141 151.691 35.4357 149.347 40.9255C146.694 47.1372 138.929 49.023 133.144 46.2352C127.558 43.5435 120.737 41.4726 114.893 43.0953C114.432 43.2234 113.774 43.633 112.931 44.5103C112.107 45.3672 111.204 46.5684 110.233 48.097C108.293 51.1522 106.176 55.371 103.967 60.394C99.5523 70.4307 94.8444 83.5108 90.5236 96.5146C86.2052 109.511 82.2838 122.401 79.4414 132.043C78.0203 136.864 76.8694 140.872 76.0739 143.674C75.6761 145.075 75.3672 146.174 75.1579 146.923C75.0532 147.298 74.9734 147.585 74.9198 147.778L74.8394 148.068L73.5637 147.717C72.2883 147.366 72.2884 147.365 72.2886 147.365L72.3702 147.07C72.4242 146.875 72.5044 146.587 72.6095 146.211C72.8198 145.459 73.1297 144.356 73.5284 142.951C74.326 140.142 75.4794 136.126 76.9033 131.295C79.7507 121.636 83.6815 108.715 88.0126 95.6803C92.3412 82.6527 97.0799 69.4798 101.544 59.3288C103.548 54.7727 105.511 50.7914 107.373 47.6942C107.364 47.6894 107.355 47.6844 107.346 47.6794L91.0962 38.3939C89.7808 41.1079 88.5803 44.0313 87.3877 47.0783C86.9464 48.2058 86.5057 49.3515 86.0608 50.5081L86.0607 50.5085ZM73.5637 147.717L72.2883 147.366C72.094 148.07 72.5076 148.799 73.212 148.993C73.9164 149.187 74.6452 148.773 74.8394 148.068C74.8392 148.069 74.8391 148.069 73.5637 147.717ZM48.194 151.379C48.1939 151.379 48.1938 151.38 49.4569 151.773C50.72 152.167 50.7201 152.167 50.7203 152.166C50.503 152.864 49.761 153.254 49.0634 153.036C48.3658 152.819 47.9767 152.077 48.194 151.379ZM111.023 42.6769C110.195 43.5388 109.353 44.6307 108.503 45.9052C108.47 45.8809 108.435 45.8582 108.398 45.8374L92.0538 36.4976C92.4789 35.6915 92.9173 34.9073 93.3724 34.1476C93.6876 33.6213 94.0101 33.1079 94.3409 32.608C94.4206 32.7052 94.5191 32.7897 94.6347 32.8558L111.312 42.3855C111.215 42.4804 111.118 42.5777 111.023 42.6769ZM112.853 41.1468C113.284 40.8792 113.729 40.6726 114.185 40.5458C121.002 38.6527 128.582 41.0994 134.293 43.8515C139.028 46.1332 144.98 44.4146 146.913 39.8864C148.653 35.8107 146.597 30.863 142.475 28.9641C135.09 25.5616 126.512 21.7422 114.718 21.6548C109.261 21.6143 105.066 22.8892 101.689 25.0533C99.3098 26.578 97.2943 28.5715 95.5185 30.9359C95.5759 30.9566 95.6324 30.9825 95.6873 31.0138L112.367 40.5453C112.609 40.6831 112.775 40.9013 112.853 41.1468Z" fill="#080807"/>
</svg>
