<svg width="173" height="172" viewBox="0 0 173 172" fill="none" xmlns="http://www.w3.org/2000/svg">
<path fill-rule="evenodd" clip-rule="evenodd" d="M53.2003 45.4289C61.9073 53.0782 71.7781 61.0676 82.3216 69.0018C83.2011 69.6637 84.0851 70.325 84.9733 70.9856L86.1325 69.7096L87.2482 68.4814C97.4017 57.3047 107.653 46.035 112.965 40.6686C110.614 40.3749 107.322 40.2116 103.404 40.1827C98.0207 40.143 91.5841 40.3561 85.0597 40.7836C78.5352 41.2111 71.9402 41.8518 66.2388 42.6643C60.691 43.4549 56.0798 44.3962 53.2003 45.4289ZM51.2641 43.7164C39.8106 33.5169 30.5217 23.9841 24.5862 16.0756C46.0809 14.7171 68.4167 20.5242 85.6511 26.8371C94.5686 30.1035 102.089 33.4937 107.378 36.0663C108.683 36.7009 109.852 37.2857 110.872 37.8063C108.719 37.643 106.187 37.5572 103.424 37.5368C97.9632 37.4965 91.4611 37.7125 84.8867 38.1432C78.3124 38.574 71.6485 39.2207 65.8655 40.0448C60.1126 40.8646 55.1345 41.8729 51.9892 43.0549C51.6585 43.1792 51.4068 43.4217 51.2641 43.7164ZM117.424 92.3603C118.822 76.9467 120.176 61.2673 117.86 42.8526C118.764 43.8726 119.89 45.1671 121.193 46.713C124.768 50.9511 129.676 57.076 135.006 64.6137C145.217 79.0556 156.934 98.6285 163.797 120.018C148.854 112.744 132.801 103.457 116.991 93.2244C117.231 93.0091 117.392 92.7063 117.424 92.3603ZM115.115 42.2559C117.54 60.6333 116.228 76.2402 114.817 91.8103C105.376 85.6401 96.044 79.1496 87.1108 72.5678L87.8768 71.7246L89.2067 70.2606C99.649 58.7661 110.025 47.3651 115.115 42.2559ZM83.1854 72.9534C72.441 84.7768 62.5378 95.6277 59.3591 98.5175C58.8184 99.009 58.7785 99.8457 59.2701 100.386C59.7616 100.927 60.5983 100.967 61.139 100.475C64.4436 97.4712 74.5489 86.3929 85.3222 74.5366C110.941 93.4297 139.887 111.619 165.389 123.719C165.861 123.943 166.421 123.868 166.818 123.529C167.214 123.189 167.374 122.647 167.225 122.146C160.407 99.2496 147.918 78.2924 137.166 63.0861C131.786 55.4763 126.829 49.2916 123.216 45.0071C121.409 42.8646 119.937 41.1964 118.916 40.062C118.596 39.7069 118.32 39.4041 118.092 39.1553L127.046 27.6604C127.496 27.084 127.392 26.2527 126.816 25.8037C126.239 25.3546 125.408 25.4579 124.959 26.0343L116.009 37.5235C115.676 37.3412 115.263 37.1174 114.774 36.8567C113.326 36.0846 111.212 34.9885 108.536 33.6868C103.184 31.0839 95.5799 27.656 86.5611 24.3525C68.552 17.7558 44.7781 11.6081 22.0036 13.6176C21.5323 13.6592 21.119 13.9493 20.9198 14.3785C20.7206 14.8077 20.7658 15.3106 21.0383 15.6974C31.4178 30.4299 54.0515 51.0396 80.7306 71.1161C81.545 71.729 82.3634 72.3415 83.1854 72.9534Z" fill="#080807"/>
</svg>
