<svg width="173" height="172" viewBox="0 0 173 172" fill="none" xmlns="http://www.w3.org/2000/svg">
<g clip-path="url(#clip0_930_2924)">
<path fill-rule="evenodd" clip-rule="evenodd" d="M43.1134 55.6322C39.5506 52.886 36.3351 49.4325 34.7516 45.1355C33.1865 40.8884 33.1555 35.6556 36.2496 29.1833C36.7276 28.1834 37.5522 27.251 38.6302 26.3363C39.7082 25.4217 40.9607 24.5887 42.2417 23.7456L42.4033 23.6392C43.6012 22.8513 44.8394 22.0369 45.8326 21.1857C46.8535 20.3108 47.8201 19.2312 48.1309 17.8748C48.682 15.4695 48.1521 12.8351 47.43 10.5723C46.8983 8.90625 46.2061 7.28756 45.6618 6.01469L45.6617 6.01434C45.4672 5.55957 45.2916 5.14895 45.1489 4.79609C44.8751 4.11872 44.1039 3.79167 43.4265 4.06559C42.749 4.3395 42.4218 5.11065 42.6957 5.78801C42.8701 6.21963 43.0679 6.68206 43.2772 7.17156L43.2777 7.17264C43.8109 8.41924 44.4191 9.84133 44.9091 11.3769C45.5912 13.5146 45.9403 15.5881 45.5516 17.2843C45.4352 17.7921 45.0105 18.4058 44.1109 19.1767C43.2482 19.916 42.1354 20.6483 40.8747 21.4779L40.8746 21.4779L40.7872 21.5354C39.5242 22.3667 38.1382 23.2839 36.9183 24.319C35.6985 25.3539 34.5659 26.5706 33.8623 28.0425C30.4987 35.0783 30.4273 41.0538 32.2687 46.0507C34.0917 50.9976 37.7299 54.8236 41.4977 57.7279C44.0196 59.6717 44.5659 61.3618 44.375 62.791C44.1628 64.3786 42.9974 66.0978 41.12 67.9213C39.2737 69.7145 36.9449 71.417 34.7316 73.0189L34.4377 73.2315L34.4375 73.2317C32.3971 74.7075 30.3947 76.1558 29.2368 77.438C24.123 83.1012 22.3973 88.8725 23.1797 94.0087C23.9579 99.118 27.1845 103.369 31.5258 106.079C31.8392 106.275 32.3025 106.474 32.7433 106.657C32.969 106.751 33.2181 106.852 33.4791 106.958L33.5215 106.975C33.7999 107.087 34.0944 107.207 34.4023 107.334C35.6412 107.847 37.0511 108.473 38.2972 109.222C39.569 109.987 40.5233 110.796 41.0041 111.614C41.4213 112.323 41.52 113.081 40.9572 114.084C40.0181 115.759 38.768 117.499 37.4044 118.978C36.0279 120.472 34.6047 121.624 33.3373 122.214C30.7814 123.404 28.0972 124.735 25.9491 126.9C23.7568 129.109 22.1973 132.104 21.6852 136.492C21.0898 141.593 21.7886 144.223 23.297 146.393C23.8091 147.129 24.4262 147.821 25.0228 148.49L25.023 148.49L25.0245 148.492C25.2249 148.717 25.423 148.939 25.614 149.159C26.4057 150.072 27.2223 151.107 28.0086 152.543C30.7547 157.556 30.2003 161.742 28.2328 165.255C26.2113 168.864 22.6562 171.82 19.3264 174.08C13.6745 177.914 11.4865 184.86 11.2844 191.972C11.172 195.931 12.112 198.361 13.9418 200.127C14.8092 200.964 15.8244 201.6 16.8571 202.175C17.3382 202.443 17.7853 202.68 18.2341 202.917L18.2347 202.917L18.2349 202.917C18.8333 203.233 19.4346 203.551 20.1229 203.948C20.7559 204.313 21.565 204.095 21.93 203.462C22.2951 202.829 22.0779 202.02 21.4449 201.655C20.7657 201.264 20.035 200.876 19.3686 200.522L19.3679 200.522L19.366 200.521C18.9184 200.284 18.4999 200.061 18.1457 199.864C17.1733 199.322 16.3973 198.819 15.7795 198.223C14.6386 197.122 13.8312 195.506 13.9295 192.047C14.1212 185.301 16.1865 179.407 20.8119 176.269C24.2382 173.944 28.2125 170.706 30.5415 166.547C32.9246 162.292 33.5421 157.136 30.3294 151.271C29.4208 149.613 28.4756 148.42 27.6137 147.426C27.3606 147.134 27.1252 146.87 26.9047 146.622C26.3465 145.996 25.8835 145.477 25.4696 144.882C24.4541 143.421 23.763 141.514 24.3134 136.798C24.7638 132.94 26.0922 130.512 27.8274 128.763C29.6066 126.97 31.8894 125.807 34.4543 124.612C36.1602 123.818 37.8562 122.392 39.3499 120.772C40.8564 119.137 42.2274 117.229 43.2652 115.378C44.3005 113.532 44.1666 111.771 43.285 110.272C42.467 108.881 41.0562 107.794 39.6613 106.955C38.2405 106.1 36.6819 105.414 35.4151 104.89C35.0966 104.758 34.7936 104.635 34.5153 104.522L34.4774 104.507C34.2123 104.4 33.973 104.303 33.7581 104.213C33.273 104.012 33.0217 103.893 32.9273 103.834C29.1224 101.459 26.4382 97.8284 25.7956 93.6099C25.1572 89.4183 26.5007 84.416 31.2007 79.2111C32.1665 78.1415 33.9774 76.8308 36.1997 75.2225L36.283 75.1622C38.4702 73.5791 40.9572 71.7678 42.9635 69.8192C44.9385 67.9009 46.6624 65.6503 46.9978 63.141C47.3543 60.4732 46.1062 57.939 43.1134 55.6322ZM58.4973 57.83C60.0808 62.127 63.2963 65.5805 66.8591 68.3267C69.8519 70.6336 71.1 73.1677 70.7435 75.8356C70.4082 78.3449 68.6842 80.5955 66.7092 82.5137C64.7029 84.4623 62.2159 86.2737 60.0287 87.8567L59.9454 87.917C57.7231 89.5254 55.9123 90.836 54.9464 91.9057C50.2464 97.1106 48.9029 102.113 49.5414 106.304C50.1839 110.523 52.8681 114.154 56.673 116.529C56.7674 116.588 57.0187 116.707 57.5038 116.908C57.7187 116.997 57.958 117.094 58.2231 117.202L58.261 117.217C58.5393 117.33 58.8423 117.452 59.1608 117.584C60.4276 118.109 61.9862 118.795 63.407 119.649C64.8019 120.488 66.2127 121.576 67.0307 122.966C67.9123 124.465 68.0462 126.227 67.0109 128.073C65.9731 129.924 64.6021 131.832 63.0956 133.466C61.6019 135.086 59.9059 136.512 58.2 137.307C55.6351 138.502 53.3523 139.664 51.5731 141.458C49.8379 143.206 48.5095 145.635 48.0591 149.493C47.5087 154.209 48.1998 156.116 49.2153 157.576C49.6292 158.171 50.0922 158.691 50.6504 159.317C50.8709 159.564 51.1063 159.828 51.3594 160.12C52.2213 161.115 53.1665 162.307 54.0751 163.966C57.2878 169.831 56.6704 174.987 54.2872 179.242C51.9582 183.4 47.9839 186.639 44.5576 188.964C39.9322 192.102 37.8669 197.995 37.6752 204.742C37.5769 208.2 38.3843 209.816 39.5252 210.917C40.143 211.514 40.919 212.017 41.8914 212.559C42.2456 212.756 42.6642 212.978 43.1118 213.216L43.1136 213.217L43.1144 213.217L43.1149 213.217C43.7811 213.571 44.5116 213.959 45.1906 214.35C45.8236 214.715 46.0408 215.524 45.6757 216.157C45.3107 216.79 44.5016 217.007 43.8686 216.642C43.1805 216.246 42.5793 215.928 41.9809 215.612L41.9805 215.612L41.9804 215.612L41.9799 215.611C41.5311 215.374 41.0839 215.138 40.6028 214.87C39.5701 214.294 38.555 213.659 37.6875 212.821C35.8577 211.056 34.9177 208.625 35.0301 204.667C35.2322 197.554 37.4202 190.609 43.0721 186.774C46.4019 184.515 49.957 181.559 51.9785 177.949C53.946 174.436 54.5004 170.25 51.7543 165.237C50.968 163.802 50.1514 162.767 49.3597 161.854C49.1682 161.633 48.9696 161.41 48.7687 161.185L48.7686 161.185C48.1719 160.516 47.5548 159.824 47.0427 159.087C45.5343 156.918 44.8355 154.288 45.4309 149.187C45.943 144.799 47.5025 141.804 49.6948 139.594C51.8429 137.429 54.5271 136.099 57.083 134.909C58.3504 134.318 59.7736 133.166 61.1501 131.673C62.5137 130.194 63.7638 128.454 64.7029 126.779C65.2657 125.775 65.167 125.017 64.7498 124.308C64.269 123.491 63.3147 122.682 62.0429 121.917C60.7968 121.167 59.3869 120.542 58.148 120.029C57.8401 119.901 57.5456 119.782 57.2672 119.669L57.2249 119.652C56.9638 119.546 56.7147 119.445 56.489 119.352C56.0483 119.169 55.5849 118.969 55.2715 118.774C50.9303 116.064 47.7037 111.813 46.9254 106.703C46.1431 101.567 47.8687 95.7958 52.9825 90.1326C54.1404 88.8504 56.1428 87.402 58.1833 85.9262L58.1834 85.9261L58.4773 85.7135C60.6906 84.1115 63.0194 82.4091 64.8657 80.6159C66.7431 78.7924 67.9085 77.0732 68.1207 75.4855C68.3116 74.0564 67.7653 72.3663 65.2434 70.4224C61.4756 67.5182 57.8374 63.6921 56.0144 58.7452C54.173 53.7484 54.2444 47.7729 57.608 40.737C58.3116 39.2651 59.4443 38.0485 60.6641 37.0135C61.8839 35.9785 63.2699 35.0613 64.5329 34.23L64.6203 34.1725L64.6204 34.1724C65.8811 33.3428 66.9939 32.6106 67.8566 31.8713C68.7562 31.1003 69.181 30.4867 69.2973 29.9789C69.686 28.2827 69.3369 26.2092 68.6548 24.0715C68.1648 22.5359 67.5566 21.1138 67.0234 19.8672L67.0228 19.8659C66.8135 19.3765 66.6158 18.9141 66.4414 18.4826C66.1675 17.8052 66.4947 17.0341 67.1722 16.7602C67.8496 16.4862 68.6208 16.8133 68.8946 17.4907C69.0373 17.8436 69.213 18.2543 69.4075 18.7093C69.9518 19.9821 70.6441 21.6008 71.1757 23.2668C71.8978 25.5296 72.4277 28.1641 71.8766 30.5694C71.5658 31.9257 70.5992 33.0054 69.5783 33.8803C68.5851 34.7314 67.3469 35.5459 66.149 36.3338L65.9874 36.4401C64.7064 37.2832 63.4539 38.1162 62.3759 39.0309C61.2979 39.9456 60.4733 40.878 59.9953 41.8779C56.9012 48.3501 56.9322 53.5829 58.4973 57.83ZM80.2314 61.3527C81.8149 65.6497 85.0303 69.1032 88.5932 71.8494C91.586 74.1562 92.834 76.6904 92.4775 79.3582C92.1422 81.8675 90.4183 84.1181 88.4432 86.0364C86.4369 87.985 83.95 89.7963 81.7627 91.3794L81.6794 91.4397C79.4572 93.048 77.6463 94.3587 76.6805 95.4283C71.9804 100.633 70.6369 105.635 71.2754 109.827C71.918 114.046 74.6022 117.677 78.4071 120.052C78.5014 120.111 78.7527 120.229 79.2379 120.431C79.4528 120.52 79.6921 120.617 79.9571 120.724L79.9951 120.74C80.2733 120.852 80.5764 120.975 80.8948 121.107C82.1617 121.632 83.7203 122.317 85.1411 123.172C86.536 124.011 87.9468 125.098 88.7648 126.489C89.6464 127.988 89.7803 129.749 88.7449 131.595C87.7071 133.446 86.3362 135.355 84.8296 136.989C83.336 138.609 81.64 140.035 79.934 140.83C77.3691 142.024 75.0864 143.187 73.3071 144.98C71.572 146.729 70.2436 149.157 69.7932 153.016C69.2427 157.732 69.9339 159.639 70.9494 161.099C71.3632 161.694 71.8263 162.214 72.3844 162.84C72.605 163.087 72.8403 163.351 73.0934 163.643C73.9553 164.637 74.9006 165.83 75.8092 167.489C79.0219 173.353 78.4044 178.509 76.0213 182.764C73.6923 186.923 69.7179 190.162 66.2916 192.486C61.6663 195.625 59.6009 201.518 59.4092 208.264C59.311 211.723 60.1184 213.339 61.2593 214.44C61.8771 215.036 62.6531 215.539 63.6255 216.081C63.9796 216.279 64.3981 216.501 64.8457 216.738L64.8477 216.739C65.5142 217.093 66.2452 217.481 66.9246 217.873C67.5576 218.238 67.7748 219.047 67.4098 219.68C67.0447 220.313 66.2357 220.53 65.6027 220.165C64.9144 219.768 64.3131 219.45 63.7146 219.134L63.7144 219.134L63.7136 219.134L63.7132 219.134C63.2647 218.897 62.8177 218.66 62.3368 218.392C61.3042 217.817 60.289 217.181 59.4215 216.344C57.5918 214.578 56.6517 212.148 56.7642 208.189C56.9663 201.077 59.1543 194.132 64.8061 190.297C68.136 188.038 71.691 185.081 73.7126 181.472C75.6801 177.959 76.2344 173.773 73.4884 168.76C72.7021 167.325 71.8854 166.29 71.0937 165.376C70.9023 165.155 70.7037 164.933 70.5028 164.707C69.9061 164.038 69.2889 163.346 68.7768 162.61C67.2684 160.44 66.5695 157.81 67.1649 152.709C67.6771 148.321 69.2366 145.326 71.4288 143.117C73.577 140.952 76.2612 139.622 78.817 138.431C80.0844 137.841 81.5076 136.689 82.8841 135.196C84.2477 133.716 85.4978 131.976 86.4369 130.302C86.9998 129.298 86.9011 128.54 86.4839 127.831C86.0031 127.013 85.0488 126.204 83.7769 125.439C82.5309 124.69 81.121 124.065 79.8821 123.552C79.5741 123.424 79.2797 123.305 79.0012 123.192L78.9589 123.175C78.6979 123.069 78.4488 122.968 78.2231 122.874C77.7823 122.691 77.319 122.492 77.0055 122.296C72.6643 119.586 69.4377 115.335 68.6595 110.226C67.8771 105.09 69.6028 99.3184 74.7166 93.6553C75.8744 92.3731 77.8767 90.9248 79.917 89.4491L79.9173 89.4489L79.9175 89.4487L80.2114 89.2361C82.4247 87.6342 84.7535 85.9317 86.5997 84.1385C88.4772 82.315 89.6426 80.5958 89.8547 79.0082C90.0457 77.579 89.4994 75.8889 86.9775 73.9451C83.2096 71.0408 79.5715 67.2148 77.7484 62.2679C75.907 57.271 75.9785 51.2955 79.342 44.2597C80.0457 42.7878 81.1783 41.5712 82.3981 40.5362C83.618 39.5012 85.0039 38.5839 86.267 37.7527L86.3544 37.6951C87.6152 36.8655 88.7279 36.1333 89.5906 35.394C90.4903 34.623 90.915 34.0094 91.0314 33.5015C91.42 31.8053 91.071 29.7318 90.3888 27.5941C89.8988 26.0585 89.2906 24.6365 88.7575 23.3899L88.7567 23.388L88.7566 23.3878C88.5474 22.8987 88.3498 22.4366 88.1754 22.0052C87.9016 21.3279 88.2288 20.5567 88.9062 20.2828C89.5837 20.0089 90.3549 20.3359 90.6287 21.0133C90.7712 21.3657 90.9465 21.7757 91.1407 22.2298L91.1411 22.2309L91.1416 22.2319C91.6859 23.5048 92.3781 25.1235 92.9097 26.7895C93.6318 29.0523 94.1618 31.6868 93.6107 34.0921C93.2999 35.4484 92.3333 36.528 91.3124 37.4029C90.3191 38.2541 89.0809 39.0685 87.8831 39.8564L87.7215 39.9628C86.4404 40.8059 85.188 41.6389 84.11 42.5535C83.032 43.4682 82.2074 44.4006 81.7294 45.4005C78.6353 51.8728 78.6662 57.1056 80.2314 61.3527Z" fill="#080807"/>
</g>
<defs>
<clipPath id="clip0_930_2924">
<rect width="171.991" height="171.991" fill="white" transform="translate(0.730469)"/>
</clipPath>
</defs>
</svg>
