<svg width="20" height="20" viewBox="0 0 20 20" fill="none" xmlns="http://www.w3.org/2000/svg">
<g clip-path="url(#clip0_518_18011)">
<path d="M20 10C20 4.4772 15.5228 0 10 0C4.4772 0 0 4.4772 0 10C0 14.6896 3.2288 18.6248 7.5844 19.7056V13.056H5.5224V10H7.5844V8.6832C7.5844 5.2796 9.1248 3.702 12.4664 3.702C13.1 3.702 14.1932 3.8264 14.6404 3.9504V6.7204C14.4044 6.6956 13.9944 6.6832 13.4852 6.6832C11.8456 6.6832 11.212 7.3044 11.212 8.9192V10H14.4784L13.9172 13.056H11.212V19.9268C16.1636 19.3288 20.0004 15.1128 20.0004 10H20Z" fill="#0866FF"/>
<path d="M13.9173 13.0552L14.4785 9.99917H11.2121V8.91837C11.2121 7.30357 11.8457 6.68237 13.4853 6.68237C13.9945 6.68237 14.4045 6.69477 14.6405 6.71957V3.94957C14.1933 3.82517 13.1001 3.70117 12.4665 3.70117C9.12486 3.70117 7.58446 5.27877 7.58446 8.68237V9.99917H5.52246V13.0552H7.58446V19.7048C8.35806 19.8968 9.16726 19.9992 10.0001 19.9992C10.4101 19.9992 10.8145 19.974 11.2117 19.926V13.0552H13.9169H13.9173Z" fill="white"/>
</g>
<defs>
<clipPath id="clip0_518_18011">
<rect width="20" height="20" fill="white"/>
</clipPath>
</defs>
</svg>
