<svg width="72" height="72" viewBox="0 0 72 72" fill="none" xmlns="http://www.w3.org/2000/svg">
<g clip-path="url(#clip0_699_24670)">
<path d="M56.3887 51.916C46.7225 53.0863 37.9236 46.1877 36.7534 36.5216C46.4195 35.3514 55.2184 42.2499 56.3887 51.916Z" fill="#090807"/>
<path d="M36.0957 36.0039C26.4295 37.1741 17.6306 30.2756 16.4604 20.6095C26.1266 19.4392 34.9255 26.3378 36.0957 36.0039Z" fill="#090807"/>
<path d="M20.7324 56.2754C19.5622 46.6092 26.4607 37.8103 36.1268 36.6401C37.2971 46.3062 30.3986 55.1052 20.7324 56.2754Z" fill="#090807"/>
<path d="M36.6436 35.9834C35.4733 26.3172 42.3718 17.5183 52.038 16.3481C53.2082 26.0142 46.3097 34.8132 36.6436 35.9834Z" fill="#090807"/>
</g>
<defs>
<clipPath id="clip0_699_24670">
<rect width="50.7344" height="50.7344" fill="white" transform="translate(72 32) rotate(128.097)"/>
</clipPath>
</defs>
</svg>
