<svg width="22" height="22" viewBox="0 0 22 22" fill="none" xmlns="http://www.w3.org/2000/svg">
<path d="M21 11.1887C21 5.56163 15.5506 1 10.0278 1C4.50493 1 1 5.56163 1 11.1887C1 16.8157 6.35678 21 11.8796 21C17.4025 21 21 16.8157 21 11.1887Z" stroke="#080807"/>
<path d="M10.9999 4.5C11.9999 4.50031 12.6422 7.25879 13.0335 8.04414C13.4395 8.85905 16.0847 8.7284 16.8797 8.8435C17.2403 8.89573 17.4206 8.92184 17.5041 9.0091C18.5648 10.1182 14.6408 11.5564 14.5297 12.4635C14.3991 13.5306 14.9519 14.9879 15.1354 16.048C15.1971 16.4041 15.2279 16.5821 15.17 16.6878C15.1196 16.7797 15.03 16.8442 14.9261 16.8632C14.8068 16.8851 14.6454 16.8011 14.3226 16.6329C13.3577 16.1302 11.4999 14.4996 11.0674 14.4996C10.4893 14.4996 8.41221 16.2501 7.67751 16.6329C7.35471 16.8011 7.19331 16.8851 7.07396 16.8632C6.97013 16.8442 6.88053 16.7797 6.83013 16.6878C6.77219 16.5821 6.80302 16.4041 6.86467 16.048C7.0482 14.9879 7.601 13.5306 7.47038 12.4635C7.46492 12.4189 7.45077 12.3758 7.42871 12.3365C6.89871 11.3935 5.58956 10.5417 4.81061 9.7901C4.28309 9.28112 4.33184 8.95769 5.12044 8.8435C6.13972 8.69592 8.39213 9.19708 8.96662 8.04414C9.24465 7.48615 10.4999 4.5 10.9999 4.5Z" fill="#E29723" stroke="black" stroke-linecap="round" stroke-linejoin="round"/>
</svg>
