<svg width="40" height="40" viewBox="0 0 40 40" fill="none" xmlns="http://www.w3.org/2000/svg">
<path d="M30.835 20C30.835 23.1928 29.4541 26.063 27.2569 28.046C27.2472 28.0551 27.2374 28.0639 27.2273 28.0726C25.3099 29.7904 22.777 30.835 20 30.835C17.2231 30.835 14.6902 29.7904 12.7728 28.0726C12.7627 28.0639 12.7528 28.0551 12.7432 28.046C10.546 26.063 9.16504 23.1928 9.16504 20C9.16504 14.016 14.016 9.16504 20 9.16504C25.984 9.16504 30.835 14.016 30.835 20Z" fill="#080807"/>
<path d="M24 17.5C24 19.7091 22.2092 21.5 20 21.5C17.7909 21.5 16 19.7091 16 17.5C16 15.2909 17.7909 13.5 20 13.5C22.2092 13.5 24 15.2909 24 17.5Z" fill="white"/>
<path d="M17.0002 25C15.3451 25 13.9248 26.1685 13.3165 27.6017C17.0002 31.1633 23.5 30.6633 26.6839 27.6017C26.0755 26.1685 24.6552 25 23.0002 25H17.0002Z" fill="white"/>
<path fill-rule="evenodd" clip-rule="evenodd" d="M15.25 17.5C15.25 14.8766 17.3767 12.75 20 12.75C22.6234 12.75 24.75 14.8766 24.75 17.5C24.75 20.1234 22.6234 22.25 20 22.25C17.3767 22.25 15.25 20.1234 15.25 17.5ZM20 14.25C18.2051 14.25 16.75 15.7051 16.75 17.5C16.75 19.2949 18.2051 20.75 20 20.75C21.795 20.75 23.25 19.2949 23.25 17.5C23.25 15.7051 21.795 14.25 20 14.25ZM14.2456 27.4284C15.8751 28.7841 18.0256 29.3896 20.1687 29.3357C22.2896 29.2823 24.3241 28.5848 25.7524 27.4246C25.1597 26.4478 24.122 25.75 23.0002 25.75H17.0002C15.8769 25.75 14.838 26.4496 14.2456 27.4284ZM12.6261 27.3087C13.3269 25.6575 14.9847 24.25 17.0002 24.25H23.0002C25.0156 24.25 26.6734 25.6575 27.3742 27.3087L27.5761 27.7843L27.2037 28.1423C25.4518 29.827 22.8394 30.7689 20.2065 30.8352C17.5668 30.9016 14.8108 30.0898 12.7951 28.1409L12.4248 27.7829L12.6261 27.3087Z" fill="white"/>
</svg>
