<svg width="104" height="124" viewBox="0 0 104 124" fill="none" xmlns="http://www.w3.org/2000/svg">
<path d="M56.2666 2.75249C90.669 13.6655 109.337 50.2732 97.9609 84.5144C88.8863 111.92 59.2029 127.057 31.685 118.328C9.67065 111.345 -2.27501 87.9193 5.00041 65.9998C10.822 48.4602 29.8105 38.7771 47.4259 44.365C61.5104 48.8328 69.1572 63.8281 64.5025 77.8519C60.78 89.067 48.6153 95.2704 37.3517 91.6974C28.3369 88.8377 23.4437 79.2423 26.423 70.2663C28.809 63.0776 36.5907 59.1093 43.7974 61.4062C49.5771 63.2397 52.7072 69.3776 50.7904 75.1196C49.265 79.7156 44.2915 82.2518 39.6624 80.7942" stroke="#080807" stroke-width="5" stroke-miterlimit="10" stroke-linecap="round" stroke-linejoin="round"/>
</svg>
